<svg width="180" height="48" viewBox="0 0 180 48" fill="none" xmlns="http://www.w3.org/2000/svg">
<rect width="180" height="48" rx="8" fill="#1B1B1B"/>
<path d="M33.5459 23.2057C33.5587 22.2062 33.8216 21.2263 34.3101 20.3571C34.7987 19.4878 35.497 18.7575 36.3402 18.234C35.8046 17.4615 35.0979 16.8257 34.2764 16.3772C33.4549 15.9287 32.5411 15.6799 31.6077 15.6504C29.6165 15.4393 27.6862 16.8536 26.6715 16.8536C25.6372 16.8536 24.075 15.6713 22.3928 15.7063C21.3046 15.7418 20.2441 16.0613 19.3147 16.6337C18.3852 17.2062 17.6184 18.012 17.089 18.9726C14.7957 22.982 16.5063 28.8745 18.703 32.1154C19.8021 33.7024 21.0866 35.475 22.7673 35.4122C24.412 35.3433 25.0263 34.3531 27.0116 34.3531C28.9785 34.3531 29.5548 35.4122 31.2696 35.3722C33.0345 35.3433 34.1464 33.7782 35.2069 32.1762C35.9966 31.0454 36.6043 29.7957 37.0074 28.4732C35.9821 28.0353 35.1071 27.3023 34.4915 26.3656C33.876 25.4288 33.5471 24.3299 33.5459 23.2057Z" fill="white"/>
<path d="M30.3066 13.5195C31.2689 12.353 31.743 10.8536 31.6282 9.33984C30.158 9.49577 28.8001 10.2053 27.8248 11.3271C27.348 11.8751 26.9827 12.5126 26.75 13.2032C26.5173 13.8939 26.4217 14.624 26.4686 15.352C27.204 15.3596 27.9314 15.1987 28.5962 14.8813C29.261 14.5639 29.8459 14.0982 30.3066 13.5195Z" fill="white"/>
<path d="M54.3358 31.395H48.7232L47.3753 35.414H44.998L50.3142 20.5447H52.7842L58.1004 35.414H55.6825L54.3358 31.395ZM49.3045 29.5404H53.7534L51.5603 23.0178H51.4989L49.3045 29.5404Z" fill="white"/>
<path d="M69.5812 29.9937C69.5812 33.3626 67.7957 35.527 65.1011 35.527C64.4185 35.5631 63.7397 35.4043 63.1423 35.0689C62.5449 34.7334 62.0532 34.2349 61.7233 33.6304H61.6723V38.9999H59.4688V24.5727H61.6017V26.3758H61.6423C61.9873 25.7742 62.4873 25.2782 63.0893 24.9407C63.6912 24.6033 64.3725 24.4369 65.0606 24.4593C67.7852 24.4593 69.5812 26.6342 69.5812 29.9937ZM67.3163 29.9937C67.3163 27.7989 66.193 26.3559 64.4793 26.3559C62.7956 26.3559 61.6631 27.8293 61.6631 29.9937C61.6631 32.1781 62.7956 33.6409 64.4793 33.6409C66.1931 33.6409 67.3163 32.2085 67.3163 29.9937Z" fill="white"/>
<path d="M81.3957 29.9937C81.3957 33.3626 79.6101 35.527 76.9155 35.527C76.233 35.5631 75.5541 35.4043 74.9568 35.0689C74.3594 34.7334 73.8676 34.2349 73.5378 33.6303H73.4868V38.9999H71.2832V24.5727H73.4162V26.3758H73.4567C73.8017 25.7742 74.3017 25.2782 74.9037 24.9407C75.5056 24.6032 76.1869 24.4369 76.875 24.4593C79.5997 24.4593 81.3957 26.6342 81.3957 29.9937ZM79.1307 29.9937C79.1307 27.7989 78.0075 26.3559 76.2937 26.3559C74.61 26.3559 73.4776 27.8293 73.4776 29.9937C73.4776 32.1781 74.61 33.6409 76.2937 33.6409C78.0075 33.6409 79.1307 32.2085 79.1307 29.9937H79.1307Z" fill="white"/>
<path d="M89.2069 31.2704C89.3702 32.745 90.7887 33.7131 92.7271 33.7131C94.5845 33.7131 95.9208 32.7449 95.9208 31.4154C95.9208 30.2612 95.1148 29.5702 93.2065 29.0966L91.2982 28.6323C88.5944 27.9728 87.3391 26.6959 87.3391 24.6239C87.3391 22.0583 89.5532 20.2961 92.697 20.2961C95.8084 20.2961 97.9414 22.0583 98.0132 24.6239H95.7887C95.6556 23.14 94.4409 22.2443 92.6657 22.2443C90.8906 22.2443 89.6759 23.1505 89.6759 24.4695C89.6759 25.5207 90.4517 26.1393 92.3496 26.6129L93.9719 27.0151C96.993 27.7366 98.2482 28.9621 98.2482 31.137C98.2482 33.9189 96.0539 35.6612 92.5638 35.6612C89.2984 35.6612 87.0936 33.9598 86.9512 31.2703L89.2069 31.2704Z" fill="white"/>
<path d="M103.002 22.0071V24.5726H105.043V26.3348H103.002V32.3113C103.002 33.2397 103.41 33.6724 104.308 33.6724C104.55 33.6681 104.792 33.6509 105.033 33.6209V35.3725C104.629 35.4487 104.219 35.4831 103.809 35.4754C101.635 35.4754 100.787 34.6511 100.787 32.5486V26.3348H99.2266V24.5726H100.787V22.0071H103.002Z" fill="white"/>
<path d="M106.229 29.9935C106.229 26.5826 108.218 24.4392 111.32 24.4392C114.433 24.4392 116.413 26.5826 116.413 29.9935C116.413 33.4139 114.443 35.5479 111.32 35.5479C108.198 35.5479 106.229 33.4138 106.229 29.9935ZM114.167 29.9935C114.167 27.6537 113.106 26.2727 111.32 26.2727C109.534 26.2727 108.474 27.6642 108.474 29.9935C108.474 32.3427 109.534 33.7132 111.32 33.7132C113.106 33.7132 114.167 32.3427 114.167 29.9935H114.167Z" fill="white"/>
<path d="M118.227 24.5726H120.328V26.4178H120.379C120.521 25.8415 120.856 25.3322 121.326 24.9755C121.796 24.6188 122.374 24.4365 122.961 24.4592C123.215 24.4583 123.469 24.4861 123.716 24.5422V26.6236C123.396 26.5247 123.061 26.4793 122.726 26.4891C122.406 26.476 122.087 26.533 121.791 26.6562C121.495 26.7794 121.228 26.9659 121.01 27.2028C120.792 27.4398 120.627 27.7216 120.527 28.0289C120.427 28.3363 120.394 28.6619 120.43 28.9833V35.4135H118.227L118.227 24.5726Z" fill="white"/>
<path d="M133.877 32.2293C133.581 34.1973 131.683 35.5479 129.255 35.5479C126.132 35.5479 124.193 33.4349 124.193 30.045C124.193 26.6446 126.142 24.4392 129.162 24.4392C132.132 24.4392 134 26.4996 134 29.7866V30.549H126.418V30.6834C126.383 31.0824 126.432 31.4843 126.563 31.8625C126.694 32.2407 126.902 32.5865 127.176 32.8769C127.449 33.1674 127.78 33.3958 128.147 33.547C128.514 33.6983 128.909 33.7688 129.306 33.7541C129.826 33.8034 130.349 33.6816 130.796 33.4069C131.242 33.1321 131.589 32.7191 131.785 32.2293L133.877 32.2293ZM126.428 28.9938H131.795C131.815 28.635 131.761 28.276 131.637 27.9393C131.513 27.6026 131.321 27.2954 131.074 27.0371C130.827 26.7787 130.529 26.5747 130.2 26.438C129.871 26.3012 129.518 26.2346 129.162 26.2423C128.803 26.2402 128.448 26.3098 128.116 26.4472C127.783 26.5846 127.482 26.787 127.227 27.0428C126.973 27.2986 126.772 27.6027 126.635 27.9376C126.497 28.2724 126.427 28.6314 126.428 28.9938V28.9938Z" fill="white"/>
<path d="M49.0305 9.35259C49.4925 9.31911 49.956 9.38959 50.3878 9.55894C50.8195 9.72829 51.2087 9.9923 51.5271 10.3319C51.8456 10.6715 52.0855 11.0783 52.2294 11.5228C52.3734 11.9674 52.4178 12.4387 52.3596 12.9027C52.3596 15.1852 51.138 16.4973 49.0305 16.4973H46.4749V9.35259H49.0305ZM47.5737 15.4869H48.9077C49.2378 15.5068 49.5682 15.4521 49.8748 15.3269C50.1813 15.2016 50.4564 15.0089 50.6799 14.7627C50.9034 14.5166 51.0697 14.2232 51.1668 13.904C51.2639 13.5847 51.2892 13.2476 51.241 12.9172C51.2857 12.5882 51.2578 12.2532 51.1592 11.9363C51.0607 11.6193 50.8939 11.3284 50.6709 11.0842C50.4479 10.84 50.1742 10.6486 49.8694 10.5238C49.5645 10.399 49.2361 10.3438 48.9077 10.3622H47.5737V15.4869Z" fill="white"/>
<path d="M53.602 13.7981C53.5684 13.4437 53.6086 13.0862 53.7198 12.7485C53.8311 12.4107 54.0111 12.1002 54.2481 11.8368C54.4852 11.5734 54.7742 11.3629 55.0965 11.2189C55.4189 11.0749 55.7675 11.0005 56.12 11.0005C56.4725 11.0005 56.8211 11.0749 57.1434 11.2189C57.4658 11.3629 57.7547 11.5734 57.9918 11.8368C58.2289 12.1002 58.4088 12.4107 58.5201 12.7485C58.6314 13.0862 58.6715 13.4437 58.638 13.7981C58.6722 14.1528 58.6325 14.5108 58.5215 14.8491C58.4105 15.1873 58.2307 15.4985 57.9936 15.7624C57.7564 16.0263 57.4672 16.2372 57.1446 16.3815C56.8219 16.5259 56.4729 16.6004 56.12 16.6004C55.7671 16.6004 55.4181 16.5259 55.0954 16.3815C54.7727 16.2372 54.4835 16.0263 54.2464 15.7624C54.0092 15.4985 53.8294 15.1873 53.7184 14.8491C53.6075 14.5108 53.5678 14.1528 53.602 13.7981ZM57.5541 13.7981C57.5541 12.6293 57.0342 11.9458 56.1217 11.9458C55.2058 11.9458 54.6905 12.6293 54.6905 13.7981C54.6905 14.9762 55.2058 15.6544 56.1217 15.6544C57.0342 15.6544 57.5541 14.9715 57.5541 13.7981H57.5541Z" fill="white"/>
<path d="M65.3321 16.4968H64.2389L63.1354 12.5257H63.052L61.9531 16.4968H60.8704L59.3987 11.105H60.4675L61.424 15.2192H61.5027L62.6004 11.105H63.6113L64.7091 15.2192H64.7925L65.7443 11.105H66.798L65.3321 16.4968Z" fill="white"/>
<path d="M68.0335 11.105H69.0478V11.9615H69.1266C69.2601 11.6539 69.4854 11.396 69.7711 11.2238C70.0567 11.0516 70.3884 10.9737 70.7199 11.0009C70.9797 10.9812 71.2406 11.0207 71.4832 11.1167C71.7258 11.2126 71.9439 11.3624 72.1214 11.555C72.2989 11.7475 72.4312 11.978 72.5085 12.2292C72.5858 12.4805 72.6061 12.7461 72.568 13.0063V16.4967H71.5143V13.2735C71.5143 12.4071 71.1414 11.9761 70.3621 11.9761C70.1857 11.9679 70.0096 11.9982 69.8459 12.065C69.6822 12.1319 69.5348 12.2337 69.4137 12.3635C69.2926 12.4932 69.2007 12.6479 69.1444 12.8169C69.088 12.9859 69.0685 13.1652 69.0872 13.3425V16.4968H68.0334L68.0335 11.105Z" fill="white"/>
<path d="M74.2463 9H75.3009V16.4966H74.2463V9Z" fill="white"/>
<path d="M76.768 13.7982C76.7344 13.4438 76.7746 13.0863 76.8859 12.7485C76.9972 12.4108 77.1772 12.1002 77.4143 11.8368C77.6514 11.5734 77.9404 11.3629 78.2628 11.2189C78.5851 11.0749 78.9338 11.0005 79.2863 11.0005C79.6388 11.0005 79.9874 11.0749 80.3098 11.2189C80.6321 11.3629 80.9211 11.5734 81.1582 11.8368C81.3953 12.1002 81.5753 12.4108 81.6866 12.7485C81.7979 13.0863 81.8381 13.4438 81.8045 13.7982C81.8387 14.1529 81.799 14.5109 81.688 14.8492C81.577 15.1875 81.3971 15.4986 81.1599 15.7625C80.9228 16.0264 80.6336 16.2373 80.3109 16.3816C79.9882 16.5259 79.6392 16.6005 79.2863 16.6005C78.9333 16.6005 78.5843 16.5259 78.2616 16.3816C77.939 16.2373 77.6497 16.0264 77.4126 15.7625C77.1754 15.4986 76.9955 15.1875 76.8845 14.8492C76.7735 14.5109 76.7338 14.1529 76.768 13.7982ZM80.7201 13.7982C80.7201 12.6294 80.2002 11.9459 79.2877 11.9459C78.3718 11.9459 77.8565 12.6294 77.8565 13.7982C77.8565 14.9763 78.3718 15.6545 79.2877 15.6545C80.2002 15.6545 80.7201 14.9716 80.7201 13.7982H80.7201Z" fill="white"/>
<path d="M82.9143 14.9715C82.9143 14.001 83.6299 13.4415 84.9002 13.362L86.3465 13.2778V12.8124C86.3465 12.2429 85.9736 11.9213 85.2534 11.9213C84.6651 11.9213 84.2575 12.1394 84.1406 12.5206H83.1204C83.2281 11.5945 84.0908 11.0005 85.302 11.0005C86.6406 11.0005 87.3956 11.6734 87.3956 12.8124V16.4964H86.3812V15.7386H86.2979C86.1286 16.0104 85.891 16.232 85.6092 16.3807C85.3275 16.5295 85.0117 16.6 84.6941 16.5852C84.4699 16.6087 84.2434 16.5846 84.0291 16.5143C83.8147 16.444 83.6173 16.3292 83.4497 16.1771C83.282 16.0251 83.1477 15.8393 83.0555 15.6316C82.9633 15.424 82.9152 15.1991 82.9143 14.9715ZM86.3465 14.5108V14.06L85.0426 14.1442C84.3073 14.1939 83.9738 14.4465 83.9738 14.9218C83.9738 15.4071 84.3907 15.6895 84.9639 15.6895C85.1319 15.7067 85.3015 15.6895 85.4628 15.6391C85.6241 15.5887 85.7737 15.5061 85.9027 15.3961C86.0316 15.2862 86.1374 15.1511 86.2137 14.999C86.2899 14.8469 86.3351 14.6809 86.3465 14.5108Z" fill="white"/>
<path d="M88.7795 13.7984C88.7795 12.0947 89.6469 11.0154 90.9959 11.0154C91.3296 10.9998 91.6607 11.0805 91.9507 11.2481C92.2406 11.4156 92.4774 11.663 92.6332 11.9613H92.712V9H93.7657V16.4966H92.756V15.6447H92.6726C92.5047 15.9411 92.2597 16.1854 91.9642 16.3512C91.6686 16.517 91.3338 16.598 90.9959 16.5855C89.6376 16.5855 88.7795 15.5062 88.7795 13.7984ZM89.8681 13.7984C89.8681 14.942 90.4019 15.6302 91.2947 15.6302C92.1828 15.6302 92.7317 14.9321 92.7317 13.8031C92.7317 12.6793 92.177 11.9713 91.2947 11.9713C90.4076 11.9713 89.868 12.6641 89.868 13.7984H89.8681Z" fill="white"/>
<path d="M98.1254 13.7981C98.0919 13.4437 98.132 13.0862 98.2433 12.7485C98.3545 12.4107 98.5345 12.1002 98.7716 11.8368C99.0087 11.5734 99.2976 11.3629 99.62 11.2189C99.9423 11.0749 100.291 11.0005 100.643 11.0005C100.996 11.0005 101.345 11.0749 101.667 11.2189C101.989 11.3629 102.278 11.5734 102.515 11.8368C102.752 12.1002 102.932 12.4107 103.044 12.7485C103.155 13.0862 103.195 13.4437 103.161 13.7981C103.196 14.1528 103.156 14.5108 103.045 14.8491C102.934 15.1873 102.754 15.4985 102.517 15.7624C102.28 16.0263 101.991 16.2372 101.668 16.3815C101.345 16.5259 100.996 16.6004 100.643 16.6004C100.291 16.6004 99.9415 16.5259 99.6188 16.3815C99.2962 16.2372 99.007 16.0263 98.7698 15.7624C98.5327 15.4985 98.3528 15.1873 98.2419 14.8491C98.1309 14.5108 98.0912 14.1528 98.1254 13.7981ZM102.078 13.7981C102.078 12.6293 101.558 11.9458 100.645 11.9458C99.7292 11.9458 99.214 12.6293 99.214 13.7981C99.214 14.9762 99.7292 15.6544 100.645 15.6544C101.558 15.6544 102.078 14.9715 102.078 13.7981Z" fill="white"/>
<path d="M104.574 11.1047H105.589V11.9613H105.668C105.801 11.6536 106.026 11.3958 106.312 11.2236C106.598 11.0514 106.929 10.9735 107.261 11.0007C107.521 10.9809 107.782 11.0205 108.024 11.1164C108.267 11.2123 108.485 11.3621 108.662 11.5547C108.84 11.7473 108.972 11.9778 109.05 12.229C109.127 12.4802 109.147 12.7458 109.109 13.0061V16.4965H108.055V13.2733C108.055 12.4068 107.682 11.9759 106.903 11.9759C106.727 11.9676 106.551 11.9979 106.387 12.0648C106.223 12.1316 106.076 12.2334 105.955 12.3632C105.834 12.493 105.742 12.6477 105.685 12.8167C105.629 12.9857 105.61 13.165 105.628 13.3423V16.4966H104.574V11.1047Z" fill="white"/>
<path d="M115.065 9.76221V11.1292H116.222V12.0255H115.065V14.798C115.065 15.3627 115.295 15.6101 115.82 15.6101C115.954 15.6096 116.088 15.6014 116.222 15.5855V16.4718C116.032 16.506 115.841 16.5242 115.649 16.5262C114.477 16.5262 114.01 16.1099 114.01 15.0704V12.0254H113.162V11.1291H114.01V9.76221H115.065Z" fill="white"/>
<path d="M117.66 9H118.705V11.9713H118.788C118.928 11.6608 119.16 11.4014 119.451 11.2286C119.742 11.0557 120.079 10.9778 120.416 11.0054C120.675 10.9912 120.933 11.0348 121.173 11.133C121.413 11.2313 121.628 11.3817 121.804 11.5737C121.979 11.7657 122.111 11.9945 122.189 12.2437C122.267 12.4929 122.29 12.7565 122.255 13.0155V16.4966H121.2V13.278C121.2 12.4168 120.803 11.9806 120.059 11.9806C119.877 11.9656 119.695 11.9908 119.525 12.0543C119.354 12.1178 119.2 12.2182 119.072 12.3484C118.944 12.4786 118.845 12.6355 118.783 12.8081C118.722 12.9807 118.698 13.1648 118.714 13.3476V16.4966H117.66L117.66 9Z" fill="white"/>
<path d="M128.399 15.0406C128.256 15.5334 127.945 15.9597 127.522 16.2448C127.1 16.53 126.591 16.6559 126.085 16.6005C125.733 16.6099 125.384 16.5419 125.061 16.4011C124.738 16.2604 124.449 16.0503 124.214 15.7856C123.979 15.5208 123.805 15.2076 123.702 14.8677C123.599 14.5279 123.571 14.1695 123.619 13.8175C123.572 13.4644 123.601 13.1053 123.703 12.7644C123.806 12.4235 123.98 12.1089 124.213 11.8418C124.447 11.5747 124.734 11.3613 125.056 11.2162C125.378 11.0711 125.728 10.9975 126.081 11.0006C127.566 11.0006 128.462 12.0256 128.462 13.7187V14.09H124.692V14.1496C124.676 14.3475 124.7 14.5466 124.764 14.7343C124.829 14.922 124.931 15.0941 125.065 15.2395C125.199 15.385 125.361 15.5005 125.542 15.5788C125.723 15.6571 125.917 15.6965 126.114 15.6942C126.366 15.7248 126.622 15.679 126.848 15.5626C127.074 15.4462 127.261 15.2645 127.384 15.0406L128.399 15.0406ZM124.692 13.303H127.389C127.402 13.122 127.378 12.9403 127.317 12.7694C127.257 12.5985 127.162 12.4423 127.038 12.3107C126.914 12.1792 126.765 12.0752 126.599 12.0056C126.433 11.9359 126.254 11.9021 126.075 11.9062C125.892 11.9039 125.712 11.9385 125.543 12.0079C125.374 12.0772 125.221 12.18 125.092 12.3102C124.963 12.4404 124.861 12.5953 124.793 12.7658C124.724 12.9363 124.69 13.119 124.692 13.303H124.692Z" fill="white"/>
</svg>
