<svg width="51" height="50" viewBox="0 0 51 50" fill="none" xmlns="http://www.w3.org/2000/svg">
<path fill-rule="evenodd" clip-rule="evenodd" d="M30.4072 26.6677H47.6214C49.3913 26.6677 51 28.2548 51 30.1595V46.6667C51 48.4128 49.3913 50 47.6214 50H30.8903C28.9598 50 27.5118 48.4128 27.5118 46.6667V29.6829C27.5118 28.0957 28.7988 26.667 30.4076 26.667L30.4072 26.6677ZM4.82695 13.6519V9.6836H9.81433V4.76299H13.8364V9.6836H18.8238V13.6519H13.8364V18.5725H9.81433V13.6519H4.82695ZM33.303 43.1748V39.6829H45.2087V43.1748H33.303ZM33.303 37.1433V33.6514H45.2087V37.1433H33.303ZM32.1768 13.6517V9.68341H46.1728V13.6517H32.1768ZM5.4705 34.9206L8.2056 32.0635L11.906 35.5554L15.4453 32.0635L18.1804 34.9206L14.6411 38.4124L18.1804 41.9043L15.4453 44.6028L11.906 41.1109L8.2056 44.6028L5.4705 41.9043L9.00977 38.4124L5.4705 34.9206ZM3.05712 0.000660697H20.2713C22.0412 0.000660697 23.6499 1.58785 23.6499 3.49256V19.9997C23.6499 21.7458 22.0412 23.333 20.2713 23.333H3.37856C1.60873 23.333 0 21.7458 0 19.9997V3.01591C0 1.42872 1.4481 0 3.05683 0L3.05712 0.000660697ZM30.4072 0.000660697H47.6214C49.3913 0.000660697 51 1.58785 51 3.49256V19.9997C51 21.7458 49.3913 23.333 47.6214 23.333H30.8903C28.9598 23.333 27.5118 21.7458 27.5118 19.9997V3.01591C27.5118 1.42872 28.7988 0 30.4076 0L30.4072 0.000660697ZM3.05712 26.6665H20.2713C22.0412 26.6665 23.6499 28.2537 23.6499 30.1584V46.6655C23.6499 48.4117 22.0412 49.9989 20.2713 49.9989H3.37856C1.60873 49.9989 0 48.4117 0 46.6655V29.6818C0 28.0946 1.4481 26.6659 3.05683 26.6659L3.05712 26.6665Z" fill="#1B1B1B"/>
</svg>
