<svg width="60" height="60" viewBox="0 0 60 60" fill="none" xmlns="http://www.w3.org/2000/svg">
<rect width="60" height="60" rx="30" fill="#F7F7F7"/>
<path d="M29.9998 16.0002C27.3477 16.0002 24.804 16.9834 22.929 18.7339C21.0535 20.4841 20 22.8582 20 25.3333C20 33.1111 30 44 30 44C30 44 40 33.1111 40 25.3333C40 23.6951 39.538 22.0855 38.6602 20.6667C37.7825 19.2478 36.5202 18.0697 35 17.2504C33.4798 16.4312 31.7552 16 30 16L29.9998 16.0002ZM29.9998 29.7479C28.6738 29.7479 27.4019 29.2562 26.4642 28.381C25.5267 27.506 24.9998 26.3189 24.9998 25.0813C24.9998 23.8436 25.5267 22.6566 26.4642 21.7814C27.402 20.9062 28.6738 20.4146 29.9998 20.4146C31.3258 20.4146 32.5977 20.9061 33.5354 21.7814C34.4729 22.6566 34.9998 23.8437 34.9998 25.0813C34.9998 26.3189 34.4729 27.506 33.5354 28.381C32.5977 29.2562 31.3258 29.7479 29.9998 29.7479Z" fill="#58BE55"/>
</svg>
