<svg width="14" height="14" viewBox="0 0 14 14" fill="none" xmlns="http://www.w3.org/2000/svg">
<path d="M8.38511 7L13.713 1.67211C14.0957 1.28978 14.0957 0.66931 13.713 0.286997C13.3307 -0.0956658 12.7099 -0.0956658 12.3279 0.286997L7 5.61489L1.67211 0.286997C1.28978 -0.0956658 0.668961 -0.0956658 0.286997 0.286997C-0.0956658 0.669319 -0.0956658 1.28979 0.286997 1.67211L5.61489 7L0.286997 12.3279C-0.0956658 12.7102 -0.0956658 13.3307 0.286997 13.713C0.477988 13.9043 0.729111 14 0.979552 14C1.23033 14 1.48112 13.9043 1.67211 13.713L7 8.38511L12.3279 13.713C12.5189 13.9043 12.77 14 13.0204 14C13.2712 14 13.522 13.9043 13.713 13.713C14.0957 13.3307 14.0957 12.7102 13.713 12.3279L8.38511 7Z" fill="black"/>
</svg>
