<svg width="46" height="24" viewBox="0 0 46 24" fill="none" xmlns="http://www.w3.org/2000/svg">
<path d="M3.67045 0.545454V18H0.585227V0.545454H3.67045ZM11.7133 18.2557C10.4349 18.2557 9.3269 17.9744 8.3894 17.4119C7.4519 16.8494 6.72463 16.0625 6.20759 15.0511C5.69622 14.0398 5.44054 12.858 5.44054 11.5057C5.44054 10.1534 5.69622 8.96875 6.20759 7.9517C6.72463 6.93466 7.4519 6.14489 8.3894 5.58239C9.3269 5.01989 10.4349 4.73864 11.7133 4.73864C12.9917 4.73864 14.0996 5.01989 15.0371 5.58239C15.9746 6.14489 16.6991 6.93466 17.2104 7.9517C17.7275 8.96875 17.986 10.1534 17.986 11.5057C17.986 12.858 17.7275 14.0398 17.2104 15.0511C16.6991 16.0625 15.9746 16.8494 15.0371 17.4119C14.0996 17.9744 12.9917 18.2557 11.7133 18.2557ZM11.7303 15.7841C12.4235 15.7841 13.003 15.5937 13.4689 15.2131C13.9349 14.8267 14.2814 14.3097 14.5087 13.6619C14.7417 13.0142 14.8582 12.2926 14.8582 11.4972C14.8582 10.696 14.7417 9.97159 14.5087 9.32386C14.2814 8.67045 13.9349 8.15057 13.4689 7.7642C13.003 7.37784 12.4235 7.18466 11.7303 7.18466C11.0201 7.18466 10.4292 7.37784 9.95759 7.7642C9.49168 8.15057 9.14224 8.67045 8.90929 9.32386C8.68202 9.97159 8.56838 10.696 8.56838 11.4972C8.56838 12.2926 8.68202 13.0142 8.90929 13.6619C9.14224 14.3097 9.49168 14.8267 9.95759 15.2131C10.4292 15.5937 11.0201 15.7841 11.7303 15.7841ZM25.4578 23.1818C24.3498 23.1818 23.3981 23.0313 22.6027 22.7301C21.8072 22.4347 21.168 22.0369 20.6851 21.5369C20.2021 21.0369 19.8669 20.483 19.6794 19.875L22.4578 19.2017C22.5828 19.4574 22.7646 19.7102 23.0032 19.9602C23.2419 20.2159 23.5629 20.4261 23.9663 20.5909C24.3754 20.7614 24.8896 20.8466 25.5089 20.8466C26.3839 20.8466 27.1084 20.6335 27.6822 20.2074C28.2561 19.7869 28.543 19.0938 28.543 18.1278V15.6477H28.3896C28.2305 15.9659 27.9976 16.2926 27.6907 16.6278C27.3896 16.9631 26.989 17.2443 26.489 17.4716C25.9947 17.6989 25.3726 17.8125 24.6226 17.8125C23.6169 17.8125 22.7049 17.5767 21.8868 17.1051C21.0743 16.6278 20.4265 15.9176 19.9436 14.9744C19.4663 14.0256 19.2277 12.8381 19.2277 11.4119C19.2277 9.97443 19.4663 8.76136 19.9436 7.77273C20.4265 6.77841 21.0771 6.02557 21.8953 5.5142C22.7135 4.99716 23.6254 4.73864 24.6311 4.73864C25.3981 4.73864 26.0288 4.86932 26.5231 5.13068C27.0231 5.38636 27.4209 5.69602 27.7163 6.05966C28.0118 6.41761 28.2362 6.75568 28.3896 7.07386H28.5601V4.90909H31.6027V18.2131C31.6027 19.3324 31.3356 20.2585 30.8015 20.9915C30.2674 21.7244 29.5373 22.2727 28.6112 22.6364C27.6851 23 26.6339 23.1818 25.4578 23.1818ZM25.4834 15.392C26.1368 15.392 26.6936 15.233 27.1538 14.9148C27.614 14.5966 27.9635 14.1392 28.2021 13.5426C28.4407 12.946 28.5601 12.2301 28.5601 11.3949C28.5601 10.571 28.4407 9.84943 28.2021 9.23011C27.9691 8.6108 27.6226 8.13068 27.1623 7.78977C26.7078 7.44318 26.1481 7.26989 25.4834 7.26989C24.7959 7.26989 24.222 7.44886 23.7618 7.80682C23.3015 8.16477 22.9549 8.65625 22.722 9.28125C22.489 9.90057 22.3726 10.6051 22.3726 11.3949C22.3726 12.196 22.489 12.8977 22.722 13.5C22.9606 14.0966 23.3101 14.5625 23.7703 14.8977C24.2362 15.2273 24.8072 15.392 25.4834 15.392ZM39.6348 18.2557C38.3564 18.2557 37.2485 17.9744 36.311 17.4119C35.3735 16.8494 34.6462 16.0625 34.1291 15.0511C33.6178 14.0398 33.3621 12.858 33.3621 11.5057C33.3621 10.1534 33.6178 8.96875 34.1291 7.9517C34.6462 6.93466 35.3735 6.14489 36.311 5.58239C37.2485 5.01989 38.3564 4.73864 39.6348 4.73864C40.9132 4.73864 42.0212 5.01989 42.9587 5.58239C43.8962 6.14489 44.6206 6.93466 45.132 7.9517C45.649 8.96875 45.9076 10.1534 45.9076 11.5057C45.9076 12.858 45.649 14.0398 45.132 15.0511C44.6206 16.0625 43.8962 16.8494 42.9587 17.4119C42.0212 17.9744 40.9132 18.2557 39.6348 18.2557ZM39.6519 15.7841C40.3451 15.7841 40.9246 15.5937 41.3905 15.2131C41.8564 14.8267 42.203 14.3097 42.4303 13.6619C42.6632 13.0142 42.7797 12.2926 42.7797 11.4972C42.7797 10.696 42.6632 9.97159 42.4303 9.32386C42.203 8.67045 41.8564 8.15057 41.3905 7.7642C40.9246 7.37784 40.3451 7.18466 39.6519 7.18466C38.9416 7.18466 38.3507 7.37784 37.8791 7.7642C37.4132 8.15057 37.0638 8.67045 36.8309 9.32386C36.6036 9.97159 36.4899 10.696 36.4899 11.4972C36.4899 12.2926 36.6036 13.0142 36.8309 13.6619C37.0638 14.3097 37.4132 14.8267 37.8791 15.2131C38.3507 15.5937 38.9416 15.7841 39.6519 15.7841Z" fill="#D2D2D2"/>
</svg>
