<svg width="40" height="33" viewBox="0 0 40 33" fill="none" xmlns="http://www.w3.org/2000/svg">
<path d="M10.7517 25.8426C6.92888 26.5298 1.99106 30.9005 0 33C0 31.8547 2.98658 28.7057 4.77853 26.7017C6.57048 24.6976 12.5437 19.8306 12.245 19.5443C12.0061 19.3153 10.5526 19.6397 9.85573 19.8306C10.7517 18.6854 12.5437 17.5403 14.9329 16.3951C17.3222 15.2499 24.49 13.2458 24.7886 10.6692C25.0276 8.60787 22.3994 5.95316 20.6074 4.94315L17.6208 5.22959C18.0987 3.62634 19.811 2.46198 20.6074 2.08021C15.8289 0.934908 7.46646 3.51163 3.88256 4.94315C10.5725 -0.782739 22.8324 -1.24924 30.7618 2.08021C30.045 4.5996 27.6757 5.03858 26.5806 4.94315L34.3784 11.7396H40C40 11.7396 36.0528 18.682 32.5538 23.266C32.2162 21.7717 34.5946 18.1127 37.1892 13.8741C35.9946 14.065 33.8679 15.1352 30.7618 18.1127C27.6558 21.0902 22.698 21.4528 20.6074 21.2619C22.5188 19.6587 23.1958 17.5401 23.2954 16.6812C22.3994 19.2579 15.5302 24.9838 10.7517 25.8426Z" fill="white"/>
</svg>
