<svg width="70" height="50" viewBox="0 0 70 50" fill="none" xmlns="http://www.w3.org/2000/svg">
<path d="M31.522 13.83C30.7062 13.0665 30.0391 13.3639 30.0391 14.4872V29.038C30.0391 30.1613 30.6755 30.4348 31.461 29.6395L34.2676 26.7868L37.3647 33.5205L40.8556 31.8666L37.8612 25.3442H41.8598C42.9665 25.3442 43.2052 24.7202 42.389 23.9613L31.522 13.83Z" fill="#1B1B1B"/>
<path d="M64.413 41.5948V5.65076C64.413 2.53794 61.9129 0.000511051 58.8415 0.000511051L11.1516 0C8.08061 0 5.58455 2.53743 5.58455 5.65025V41.5916L0 41.5921C0 41.5921 0.726079 50 5.58455 50H35.8546H64.4154C69.2694 50 70 41.5921 70 41.5921H64.4129L64.413 41.5948ZM40.7105 46.9587H29.2855C28.5333 46.9587 27.927 46.344 27.927 45.5799C27.927 44.8205 28.5328 44.2057 29.2855 44.2057H40.7105C41.4587 44.2057 42.0645 44.8205 42.0645 45.5799C42.0645 46.3414 41.4587 46.9587 40.7105 46.9587ZM60.1283 41.5948H9.86552V5.65076C9.86552 4.9358 10.4431 4.34962 11.1515 4.34962H58.8414C59.5504 4.34962 60.1274 4.9358 60.1274 5.65076L60.1283 41.5948Z" fill="#1B1B1B"/>
</svg>
