<svg width="40" height="40" viewBox="0 0 40 40" fill="none" xmlns="http://www.w3.org/2000/svg">
<path fill-rule="evenodd" clip-rule="evenodd" d="M20 40C31.0457 40 40 31.0457 40 20C40 8.9543 31.0457 0 20 0C11.7874 0 4.73086 4.95008 1.65136 12.0294C8.58786 8.15996 18.8297 8.16951 25.7618 11.0802C25.045 13.5996 22.6757 14.0386 21.5806 13.9431L29.3784 20.7396H35C35 20.7396 31.0528 27.682 27.5538 32.266C27.2473 30.9092 29.1798 27.7679 31.4802 24.0286C31.7134 23.6495 31.9504 23.2643 32.1892 22.8741C30.9946 23.065 28.8679 24.1352 25.7618 27.1127C22.6558 30.0902 17.698 30.4528 15.6074 30.2619C17.5188 28.6587 18.1958 26.5401 18.2954 25.6812C17.441 28.1382 11.1554 33.4587 6.43017 34.6923C9.99555 37.9869 14.7627 40 20 40ZM3.88444 31.8466C3.8867 31.8446 3.88896 31.8425 3.89122 31.8405C5.74049 30.1876 7.40618 28.6988 7.24499 28.5443C7.00607 28.3153 5.5526 28.6397 4.85573 28.8306C5.7517 27.6854 7.54365 26.5403 9.93292 25.3951C10.49 25.1281 11.3069 24.8143 12.236 24.4576C15.2913 23.2842 19.5596 21.645 19.7886 19.6692C20.0276 17.6079 17.3994 14.9532 15.6074 13.9431L12.6208 14.2296C13.0987 12.6263 14.811 11.462 15.6074 11.0802C11.6866 10.1405 5.35299 11.7065 1.22592 13.0898C0.432962 15.2434 0 17.5711 0 20C0 24.4338 1.44277 28.5306 3.88444 31.8466Z" fill="#1B1B1B"/>
</svg>
