<svg width="180" height="48" viewBox="0 0 180 48" fill="none" xmlns="http://www.w3.org/2000/svg">
<rect width="180" height="48" rx="8" fill="#1B1B1B"/>
<path d="M59.9609 11.8967C59.9609 12.8413 59.7258 13.6679 59.1381 14.2583C58.4328 14.9668 57.61 15.3211 56.5521 15.3211C55.4942 15.3211 54.6714 14.9668 53.9661 14.2583C53.2608 13.5498 52.9082 12.7233 52.9082 11.6605C52.9082 10.5978 53.2608 9.77122 53.9661 9.06273C54.6714 8.35424 55.4942 8 56.5521 8C57.0223 8 57.4925 8.11808 57.9627 8.35424C58.4328 8.59041 58.7855 8.82657 59.0206 9.18082L58.4328 9.77122C57.9626 9.18082 57.3749 8.94465 56.5521 8.94465C55.8468 8.94465 55.1416 9.18082 54.6714 9.77122C54.0837 10.2435 53.8486 10.952 53.8486 11.7786C53.8486 12.6052 54.0837 13.3137 54.6714 13.786C55.2591 14.2583 55.8468 14.6126 56.5521 14.6126C57.3749 14.6126 57.9627 14.3764 58.5504 13.786C58.903 13.4318 59.1381 12.9594 59.1381 12.369H56.5521V11.4244H59.9609V11.8967ZM65.368 8.94465H62.1943V11.1882H65.1329V12.0148H62.1943V14.2583H65.368V15.203H61.2539V8.11808H65.368V8.94465ZM69.247 15.203H68.3066V8.94465H66.3084V8.11808H71.2453V8.94465H69.247V15.203ZM74.6541 15.203V8.11808H75.5945V15.203H74.6541ZM79.591 15.203H78.6506V8.94465H76.6524V8.11808H81.4717V8.94465H79.4735V15.203H79.591ZM90.7578 14.2583C90.0525 14.9668 89.2297 15.3211 88.1718 15.3211C87.1139 15.3211 86.2911 14.9668 85.5858 14.2583C84.8805 13.5498 84.5279 12.7233 84.5279 11.6605C84.5279 10.5978 84.8805 9.77122 85.5858 9.06273C86.2911 8.35424 87.1139 8 88.1718 8C89.2297 8 90.0525 8.35424 90.7578 9.06273C91.4631 9.77122 91.8157 10.5978 91.8157 11.6605C91.8157 12.7233 91.4631 13.5498 90.7578 14.2583ZM86.2911 13.6679C86.7613 14.1402 87.4665 14.4945 88.1718 14.4945C88.8771 14.4945 89.5824 14.2583 90.0525 13.6679C90.5227 13.1956 90.8753 12.4871 90.8753 11.6605C90.8753 10.834 90.6403 10.1255 90.0525 9.65314C89.5824 9.18082 88.8771 8.82657 88.1718 8.82657C87.4665 8.82657 86.7613 9.06273 86.2911 9.65314C85.8209 10.1255 85.4683 10.834 85.4683 11.6605C85.4683 12.4871 85.7034 13.1956 86.2911 13.6679ZM93.1087 15.203V8.11808H94.1666L97.5754 13.6679V8.11808H98.5158V15.203H97.5754L93.9315 9.41698V15.203H93.1087Z" fill="white" stroke="white" stroke-width="0.362963" stroke-miterlimit="10"/>
<path d="M84.2939 25.594C81.4728 25.594 79.2394 27.7195 79.2394 30.6715C79.2394 33.5055 81.4728 35.749 84.2939 35.749C87.115 35.749 89.3483 33.6236 89.3483 30.6715C89.3483 27.6014 87.115 25.594 84.2939 25.594ZM84.2939 33.6236C82.7658 33.6236 81.4728 32.3247 81.4728 30.5535C81.4728 28.7822 82.7658 27.4833 84.2939 27.4833C85.822 27.4833 87.115 28.6641 87.115 30.5535C87.115 32.3247 85.822 33.6236 84.2939 33.6236ZM73.3622 25.594C70.5411 25.594 68.3077 27.7195 68.3077 30.6715C68.3077 33.5055 70.5411 35.749 73.3622 35.749C76.1833 35.749 78.4166 33.6236 78.4166 30.6715C78.4166 27.6014 76.1833 25.594 73.3622 25.594ZM73.3622 33.6236C71.8341 33.6236 70.5411 32.3247 70.5411 30.5535C70.5411 28.7822 71.8341 27.4833 73.3622 27.4833C74.8903 27.4833 76.1833 28.6641 76.1833 30.5535C76.1833 32.3247 74.8903 33.6236 73.3622 33.6236ZM60.3146 27.1291V29.2546H65.3691C65.2515 30.4354 64.7814 31.38 64.1936 31.9704C63.4884 32.6789 62.3129 33.5055 60.3146 33.5055C57.1409 33.5055 54.79 31.0258 54.79 27.8376C54.79 24.6494 57.2585 22.1697 60.3146 22.1697C61.9603 22.1697 63.2533 22.8781 64.1936 23.7047L65.7217 22.1697C64.4287 20.9888 62.7831 20.0442 60.4322 20.0442C56.2005 20.0442 52.5566 23.5866 52.5566 27.8376C52.5566 32.0885 56.2005 35.631 60.4322 35.631C62.7831 35.631 64.4287 34.9225 65.8393 33.3874C67.2498 31.9704 67.72 29.963 67.72 28.428C67.72 27.9557 67.72 27.4833 67.6025 27.1291H60.3146ZM113.68 28.7822C113.21 27.6014 112.035 25.594 109.449 25.594C106.863 25.594 104.747 27.6014 104.747 30.6715C104.747 33.5055 106.863 35.749 109.684 35.749C111.917 35.749 113.328 34.3321 113.798 33.5055L112.152 32.3247C111.564 33.1512 110.859 33.7417 109.684 33.7417C108.508 33.7417 107.803 33.2693 107.215 32.2066L113.915 29.3726L113.68 28.7822ZM106.863 30.4354C106.863 28.5461 108.391 27.4833 109.449 27.4833C110.271 27.4833 111.094 27.9557 111.329 28.5461L106.863 30.4354ZM101.338 35.2767H103.571V20.5165H101.338V35.2767ZM97.8116 26.6568C97.2239 26.0664 96.2835 25.4759 95.1081 25.4759C92.6396 25.4759 90.2887 27.7195 90.2887 30.5535C90.2887 33.3874 92.5221 35.5129 95.1081 35.5129C96.2835 35.5129 97.2239 34.9225 97.6941 34.3321H97.8116V35.0406C97.8116 36.9299 96.7537 37.9926 95.1081 37.9926C93.8151 37.9926 92.8747 37.0479 92.6396 36.2214L90.7589 37.0479C91.3466 38.3468 92.7572 40 95.2256 40C97.8116 40 99.9274 38.4649 99.9274 34.8044V25.8302H97.8116V26.6568ZM95.2256 33.6236C93.6975 33.6236 92.4045 32.3247 92.4045 30.5535C92.4045 28.7822 93.6975 27.4833 95.2256 27.4833C96.7537 27.4833 97.9291 28.7822 97.9291 30.5535C97.9291 32.3247 96.7537 33.6236 95.2256 33.6236ZM123.907 20.5165H118.617V35.2767H120.85V29.7269H123.907C126.375 29.7269 128.726 27.9557 128.726 25.1217C128.726 22.2877 126.375 20.5165 123.907 20.5165ZM124.024 27.6014H120.85V22.5239H124.024C125.67 22.5239 126.61 23.9409 126.61 25.0036C126.493 26.3025 125.552 27.6014 124.024 27.6014ZM137.542 25.4759C135.896 25.4759 134.251 26.1844 133.663 27.7195L135.661 28.5461C136.131 27.7195 136.837 27.4833 137.659 27.4833C138.835 27.4833 139.893 28.1918 140.01 29.3726V29.4907C139.658 29.2546 138.717 28.9003 137.777 28.9003C135.661 28.9003 133.545 30.0811 133.545 32.2066C133.545 34.214 135.309 35.5129 137.189 35.5129C138.717 35.5129 139.423 34.8044 140.01 34.0959H140.128V35.2767H142.244V29.6088C142.009 27.011 140.01 25.4759 137.542 25.4759ZM137.307 33.6236C136.602 33.6236 135.544 33.2693 135.544 32.3247C135.544 31.1439 136.837 30.7896 137.895 30.7896C138.835 30.7896 139.305 31.0258 139.893 31.2619C139.658 32.6789 138.482 33.6236 137.307 33.6236ZM149.649 25.8302L147.181 32.2066H147.063L144.477 25.8302H142.126L146.005 34.8044L143.772 39.7638H146.005L152 25.8302H149.649ZM129.901 35.2767H132.135V20.5165H129.901V35.2767Z" fill="white"/>
<path d="M16.4702 8.70825C16.1175 9.0625 16 9.6529 16 10.3614V36.4574C16 37.1659 16.2351 37.7563 16.5877 38.1106L16.7053 38.2287L31.2809 23.5865V23.3504L16.4702 8.70825Z" fill="url(#paint0_linear_262_1429)"/>
<path d="M35.9834 28.546L31.1641 23.7046V23.3504L35.9834 18.509L36.101 18.6271L41.8607 21.9334C43.5063 22.8781 43.5063 24.4131 41.8607 25.3578L35.9834 28.546Z" fill="url(#paint1_linear_262_1429)"/>
<path d="M36.1008 28.4279L31.1639 23.4685L16.4707 38.2287C17.0584 38.8191 17.8812 38.8191 18.9392 38.3468L36.1008 28.4279Z" fill="url(#paint2_linear_262_1429)"/>
<path d="M36.1008 18.5097L18.9392 8.70897C17.8812 8.11856 17.0584 8.23664 16.4707 8.82705L31.1639 23.4692L36.1008 18.5097Z" fill="url(#paint3_linear_262_1429)"/>
<path opacity="0.2" d="M35.9832 28.3098L18.9392 37.9925C17.9988 38.5829 17.176 38.4648 16.5882 37.9925L16.4707 38.1106L16.5882 38.2287C17.176 38.701 17.9988 38.8191 18.9392 38.2287L35.9832 28.3098Z" fill="#1A1A1A"/>
<path opacity="0.12" d="M16.4702 37.9926C16.1175 37.6383 16 37.0479 16 36.3394V36.4575C16 37.166 16.2351 37.7564 16.5877 38.1106V37.9926H16.4702ZM41.86 25.0036L35.9827 28.3099L36.1003 28.4279L41.86 25.1216C42.6828 24.6493 43.0354 24.0589 43.0354 23.4685C43.0354 24.0589 42.5653 24.5312 41.86 25.0036Z" fill="#1A1A1A"/>
<path opacity="0.25" d="M18.9386 8.82643L41.86 21.9335C42.5653 22.4058 43.0354 22.8781 43.0354 23.4686C43.0354 22.8781 42.6828 22.2877 41.86 21.8154L18.9386 8.70835C17.293 7.7637 16 8.47219 16 10.3615V10.4796C16 8.70835 17.293 7.88178 18.9386 8.82643Z" fill="white"/>
<defs>
<linearGradient id="paint0_linear_262_1429" x1="29.8704" y1="10.137" x2="10.0529" y2="29.8633" gradientUnits="userSpaceOnUse">
<stop stop-color="#00A0FF"/>
<stop offset="0.007" stop-color="#00A1FF"/>
<stop offset="0.26" stop-color="#00BEFF"/>
<stop offset="0.512" stop-color="#00D2FF"/>
<stop offset="0.76" stop-color="#00DFFF"/>
<stop offset="1" stop-color="#00E3FF"/>
</linearGradient>
<linearGradient id="paint1_linear_262_1429" x1="44.0165" y1="23.4696" x2="15.574" y2="23.4696" gradientUnits="userSpaceOnUse">
<stop stop-color="#FFE000"/>
<stop offset="0.409" stop-color="#FFBD00"/>
<stop offset="0.775" stop-color="#FFA500"/>
<stop offset="1" stop-color="#FF9C00"/>
</linearGradient>
<linearGradient id="paint2_linear_262_1429" x1="33.429" y1="26.1797" x2="6.55622" y2="52.9304" gradientUnits="userSpaceOnUse">
<stop stop-color="#FF3A44"/>
<stop offset="1" stop-color="#C31162"/>
</linearGradient>
<linearGradient id="paint3_linear_262_1429" x1="12.8233" y1="0.0606671" x2="24.8238" y2="12.0067" gradientUnits="userSpaceOnUse">
<stop stop-color="#32A071"/>
<stop offset="0.069" stop-color="#2DA771"/>
<stop offset="0.476" stop-color="#15CF74"/>
<stop offset="0.801" stop-color="#06E775"/>
<stop offset="1" stop-color="#00F076"/>
</linearGradient>
</defs>
</svg>
