<svg width="52" height="50" viewBox="0 0 52 50" fill="none" xmlns="http://www.w3.org/2000/svg">
<rect x="2" y="2" width="48" height="46" rx="2" stroke="#1B1B1B" stroke-width="4"/>
<path d="M18.0189 20.2737L20.5605 22.8149L17.0828 26.2926C16.0574 27.318 15.5221 28.6557 15.5221 30.0826C15.5221 31.5095 16.0571 32.8468 17.0828 33.8725C18.1082 34.8979 19.4458 35.4332 20.8727 35.4332C22.2996 35.4332 23.637 34.8983 24.6627 33.8725L28.1401 30.3501L30.6816 32.8917L27.2039 36.3694C25.5096 38.0637 23.2803 38.9998 20.9172 38.9998C18.5542 38.9998 16.2805 38.0634 14.6306 36.3694C12.9362 34.675 12.0001 32.4457 12.0001 30.0827C12.0001 27.7196 12.9365 25.4459 14.6306 23.796L18.0189 20.2737Z" fill="#1B1B1B"/>
<path d="M36.2983 19.9617C36.2983 18.5348 35.7633 17.1974 34.7376 16.1717C33.7122 15.1463 32.3745 14.6111 30.9476 14.6111C29.5207 14.6111 28.1834 15.146 27.1577 16.1717L23.6803 19.6497L21.1387 17.1082L24.6164 13.6305C26.3108 11.9361 28.5401 11 30.9031 11C33.2662 11 35.5399 11.9365 37.1898 13.6305C38.8842 15.3248 39.8203 17.5541 39.8203 19.9172C39.8203 22.2802 38.8838 24.554 37.1898 26.2039L33.7121 29.6816L31.2598 27.2293L34.7375 23.7516C35.7632 22.7262 36.2982 21.3885 36.2982 19.9616L36.2983 19.9617Z" fill="#1B1B1B"/>
<path d="M31.2695 22.1614L28.7472 19.6392L20.5506 27.8358L23.0729 30.3581L31.2695 22.1614Z" fill="#1B1B1B"/>
</svg>
