<svg width="104" height="40" viewBox="0 0 104 40" fill="none" xmlns="http://www.w3.org/2000/svg">
<path fill-rule="evenodd" clip-rule="evenodd" d="M20 40C31.0457 40 40 31.0457 40 20C40 8.9543 31.0457 0 20 0C11.7874 0 4.73086 4.95008 1.65136 12.0294C8.58786 8.15996 18.8297 8.16951 25.7618 11.0802C25.045 13.5996 22.6757 14.0386 21.5806 13.9431L29.3784 20.7396H35C35 20.7396 31.0528 27.682 27.5538 32.266C27.2473 30.9092 29.1798 27.7679 31.4802 24.0286C31.7134 23.6495 31.9504 23.2643 32.1892 22.8741C30.9946 23.065 28.8679 24.1352 25.7618 27.1127C22.6558 30.0902 17.698 30.4528 15.6074 30.2619C17.5188 28.6587 18.1958 26.5401 18.2954 25.6812C17.441 28.1382 11.1554 33.4587 6.43017 34.6923C9.99555 37.9869 14.7627 40 20 40ZM3.88444 31.8466C3.8867 31.8446 3.88896 31.8425 3.89122 31.8405C5.74049 30.1876 7.40618 28.6988 7.24499 28.5443C7.00607 28.3153 5.5526 28.6397 4.85573 28.8306C5.7517 27.6854 7.54365 26.5403 9.93292 25.3951C10.49 25.1281 11.3069 24.8143 12.236 24.4576C15.2913 23.2842 19.5596 21.645 19.7886 19.6692C20.0276 17.6079 17.3994 14.9532 15.6074 13.9431L12.6208 14.2296C13.0987 12.6263 14.811 11.462 15.6074 11.0802C11.6866 10.1405 5.35299 11.7065 1.22592 13.0898C0.432962 15.2434 0 17.5711 0 20C0 24.4338 1.44277 28.5306 3.88444 31.8466Z" fill="#1B1B1B"/>
<path d="M53.7784 27H49.1378V13.9091H53.8168C55.1335 13.9091 56.267 14.1712 57.2173 14.6953C58.1676 15.2152 58.8984 15.9631 59.4098 16.9389C59.9254 17.9148 60.1832 19.0824 60.1832 20.4418C60.1832 21.8054 59.9254 22.9773 59.4098 23.9574C58.8984 24.9375 58.1634 25.6896 57.2045 26.2138C56.25 26.7379 55.108 27 53.7784 27ZM51.9055 24.6286H53.6634C54.4815 24.6286 55.1697 24.4837 55.728 24.1939C56.2905 23.8999 56.7124 23.446 56.9936 22.8324C57.2791 22.2145 57.4219 21.4176 57.4219 20.4418C57.4219 19.4744 57.2791 18.6839 56.9936 18.0703C56.7124 17.4567 56.2926 17.005 55.7344 16.7152C55.1761 16.4254 54.4879 16.2805 53.6697 16.2805H51.9055V24.6286ZM66.0268 27.1918C65.0168 27.1918 64.1475 26.9872 63.4188 26.5781C62.6944 26.1648 62.1362 25.581 61.7441 24.8267C61.3521 24.0682 61.156 23.1712 61.156 22.1357C61.156 21.1257 61.3521 20.2393 61.7441 19.4766C62.1362 18.7138 62.688 18.1193 63.3997 17.6932C64.1156 17.267 64.955 17.054 65.9181 17.054C66.5658 17.054 67.1688 17.1584 67.7271 17.3672C68.2896 17.5717 68.7796 17.8807 69.1972 18.294C69.6191 18.7074 69.9472 19.2273 70.1816 19.8537C70.416 20.4759 70.5332 21.2045 70.5332 22.0398V22.7876H62.2427V21.1001H67.97C67.97 20.7081 67.8847 20.3608 67.7143 20.0582C67.5438 19.7557 67.3073 19.5192 67.0048 19.3487C66.7065 19.174 66.3592 19.0866 65.9629 19.0866C65.5495 19.0866 65.183 19.1825 64.8634 19.3743C64.5481 19.5618 64.3009 19.8153 64.122 20.1349C63.943 20.4503 63.8514 20.8018 63.8471 21.1896V22.794C63.8471 23.2798 63.9366 23.6996 64.1156 24.0533C64.2988 24.407 64.5566 24.6797 64.889 24.8714C65.2214 25.0632 65.6156 25.1591 66.0715 25.1591C66.3741 25.1591 66.6511 25.1165 66.9025 25.0312C67.1539 24.946 67.3691 24.8182 67.5481 24.6477C67.7271 24.4773 67.8634 24.2685 67.9572 24.0213L70.4756 24.1875C70.3478 24.7926 70.0857 25.321 69.6894 25.7727C69.2974 26.2202 68.7903 26.5696 68.1681 26.821C67.5502 27.0682 66.8364 27.1918 66.0268 27.1918ZM79.8492 19.9815L77.3563 20.1349C77.3137 19.9219 77.2221 19.7301 77.0814 19.5597C76.9408 19.3849 76.7554 19.2464 76.5253 19.1442C76.2995 19.0376 76.0289 18.9844 75.7135 18.9844C75.2917 18.9844 74.9358 19.0739 74.6461 19.2528C74.3563 19.4276 74.2114 19.6619 74.2114 19.956C74.2114 20.1903 74.3052 20.3885 74.4927 20.5504C74.6802 20.7124 75.0019 20.8423 75.4579 20.9403L77.2349 21.2983C78.1894 21.4943 78.901 21.8097 79.3698 22.2443C79.8385 22.679 80.0729 23.25 80.0729 23.9574C80.0729 24.6009 79.8833 25.1655 79.504 25.6513C79.129 26.1371 78.6134 26.5163 77.9572 26.7891C77.3052 27.0575 76.553 27.1918 75.7008 27.1918C74.401 27.1918 73.3655 26.9212 72.5942 26.38C71.8272 25.8345 71.3776 25.093 71.2455 24.1555L73.9238 24.0149C74.0047 24.4112 74.2008 24.7138 74.5118 24.9226C74.8229 25.1271 75.2214 25.2294 75.7072 25.2294C76.1844 25.2294 76.5679 25.1378 76.8577 24.9545C77.1518 24.767 77.3009 24.5263 77.3052 24.2322C77.3009 23.9851 77.1965 23.7827 76.992 23.625C76.7874 23.4631 76.4721 23.3395 76.0459 23.2543L74.3456 22.9155C73.3868 22.7237 72.6731 22.3913 72.2043 21.9183C71.7398 21.4453 71.5076 20.8423 71.5076 20.1094C71.5076 19.4787 71.678 18.9354 72.0189 18.4794C72.3641 18.0234 72.8478 17.6719 73.4699 17.4247C74.0964 17.1776 74.8293 17.054 75.6688 17.054C76.9089 17.054 77.8847 17.3161 78.5964 17.8402C79.3123 18.3643 79.7299 19.0781 79.8492 19.9815ZM86.3799 17.1818V19.2273H80.4672V17.1818H86.3799ZM81.8096 14.8295H84.5326V23.983C84.5326 24.2344 84.5709 24.4304 84.6476 24.571C84.7243 24.7074 84.8309 24.8033 84.9672 24.8587C85.1079 24.9141 85.2698 24.9418 85.453 24.9418C85.5809 24.9418 85.7087 24.9311 85.8366 24.9098C85.9644 24.8842 86.0624 24.8651 86.1306 24.8523L86.5589 26.8786C86.4225 26.9212 86.2307 26.9702 85.9836 27.0256C85.7364 27.0852 85.436 27.1214 85.0823 27.1342C84.4261 27.1598 83.8508 27.0724 83.3564 26.8722C82.8664 26.6719 82.485 26.3608 82.2123 25.9389C81.9395 25.517 81.8053 24.9844 81.8096 24.3409V14.8295ZM91.8926 27.1918C90.8827 27.1918 90.0134 26.9872 89.2847 26.5781C88.5603 26.1648 88.002 25.581 87.61 24.8267C87.2179 24.0682 87.0219 23.1712 87.0219 22.1357C87.0219 21.1257 87.2179 20.2393 87.61 19.4766C88.002 18.7138 88.5539 18.1193 89.2655 17.6932C89.9814 17.267 90.8209 17.054 91.784 17.054C92.4317 17.054 93.0347 17.1584 93.5929 17.3672C94.1554 17.5717 94.6455 17.8807 95.0631 18.294C95.485 18.7074 95.8131 19.2273 96.0475 19.8537C96.2818 20.4759 96.399 21.2045 96.399 22.0398V22.7876H88.1086V21.1001H93.8358C93.8358 20.7081 93.7506 20.3608 93.5801 20.0582C93.4097 19.7557 93.1732 19.5192 92.8706 19.3487C92.5723 19.174 92.225 19.0866 91.8287 19.0866C91.4154 19.0866 91.0489 19.1825 90.7293 19.3743C90.4139 19.5618 90.1668 19.8153 89.9878 20.1349C89.8088 20.4503 89.7172 20.8018 89.713 21.1896V22.794C89.713 23.2798 89.8024 23.6996 89.9814 24.0533C90.1647 24.407 90.4225 24.6797 90.7549 24.8714C91.0872 25.0632 91.4814 25.1591 91.9374 25.1591C92.2399 25.1591 92.5169 25.1165 92.7684 25.0312C93.0198 24.946 93.235 24.8182 93.4139 24.6477C93.5929 24.4773 93.7293 24.2685 93.823 24.0213L96.3415 24.1875C96.2137 24.7926 95.9516 25.321 95.5553 25.7727C95.1632 26.2202 94.6561 26.5696 94.034 26.821C93.4161 27.0682 92.7023 27.1918 91.8926 27.1918ZM97.546 27V17.1818H100.186V18.8949H100.288C100.467 18.2855 100.768 17.8253 101.189 17.5142C101.611 17.1989 102.097 17.0412 102.647 17.0412C102.783 17.0412 102.93 17.0497 103.088 17.0668C103.246 17.0838 103.384 17.1072 103.503 17.1371V19.5533C103.376 19.5149 103.199 19.4808 102.973 19.451C102.747 19.4212 102.54 19.4062 102.353 19.4062C101.952 19.4062 101.594 19.4936 101.279 19.6683C100.968 19.8388 100.721 20.0774 100.537 20.3842C100.359 20.6911 100.269 21.0447 100.269 21.4453V27H97.546Z" fill="#1B1B1B"/>
</svg>
