<svg width="103" height="32" viewBox="0 0 103 32" fill="none" xmlns="http://www.w3.org/2000/svg">
<path fill-rule="evenodd" clip-rule="evenodd" d="M16 32C24.8366 32 32 24.8366 32 16C32 7.16344 24.8366 0 16 0C9.42989 0 3.7847 3.96005 1.3211 9.62349C6.8703 6.52796 15.0638 6.53559 20.6095 8.86415C20.036 10.8797 18.1405 11.2309 17.2645 11.1545L23.5027 16.5917H28C28 16.5917 24.8422 22.1456 22.043 25.8128C21.7978 24.7274 23.3438 22.2144 25.1841 19.2229C25.3707 18.9196 25.5603 18.6114 25.7514 18.2993C24.7956 18.452 23.0943 19.3082 20.6095 21.6901C18.1246 24.0721 14.1584 24.3622 12.4859 24.2095C14.0151 22.9269 14.5566 21.2321 14.6363 20.545C13.9528 22.5106 8.92428 26.767 5.14412 27.7538C7.99643 30.3895 11.8101 32 16 32ZM3.10754 25.4773C3.10936 25.4756 3.11117 25.474 3.11298 25.4724C4.5924 24.1501 5.92495 22.9591 5.796 22.8354C5.60486 22.6522 4.44208 22.9118 3.88458 23.0645C4.60136 22.1483 6.03492 21.2322 7.94634 20.316C8.39202 20.1024 9.04553 19.8515 9.78876 19.566C12.2331 18.6273 15.6477 17.316 15.8309 15.7353C16.0221 14.0863 13.9195 11.9625 12.4859 11.1545L10.0967 11.3837C10.479 10.1011 11.8488 9.16957 12.4859 8.86415C9.34929 8.11237 4.2824 9.36521 0.980741 10.4718C0.346372 12.1947 0 14.0569 0 16C0 19.547 1.15421 22.8245 3.10754 25.4773Z" fill="#222222"/>
<path d="M45.1364 21.5H41.0114V9.86364H45.1705C46.3409 9.86364 47.3485 10.0966 48.1932 10.5625C49.0379 11.0246 49.6875 11.6894 50.142 12.5568C50.6004 13.4242 50.8295 14.4621 50.8295 15.6705C50.8295 16.8826 50.6004 17.9242 50.142 18.7955C49.6875 19.6667 49.0341 20.3352 48.1818 20.8011C47.3333 21.267 46.3182 21.5 45.1364 21.5ZM43.4716 19.392H45.0341C45.7614 19.392 46.3731 19.2633 46.8693 19.0057C47.3693 18.7443 47.7443 18.3409 47.9943 17.7955C48.2481 17.2462 48.375 16.5379 48.375 15.6705C48.375 14.8106 48.2481 14.108 47.9943 13.5625C47.7443 13.017 47.3712 12.6155 46.875 12.358C46.3788 12.1004 45.767 11.9716 45.0398 11.9716H43.4716V19.392ZM52.492 21.5V9.86364H60.3329V11.892H54.9522V14.6648H59.9295V16.6932H54.9522V19.4716H60.3556V21.5H52.492ZM68.4414 13.2102C68.3959 12.7519 68.2008 12.3958 67.8561 12.142C67.5114 11.8883 67.0436 11.7614 66.4527 11.7614C66.0512 11.7614 65.7122 11.8182 65.4357 11.9318C65.1592 12.0417 64.947 12.1951 64.7993 12.392C64.6554 12.589 64.5834 12.8125 64.5834 13.0625C64.5758 13.2708 64.6194 13.4527 64.7141 13.608C64.8126 13.7633 64.947 13.8977 65.1175 14.0114C65.288 14.1212 65.4849 14.2178 65.7084 14.3011C65.9319 14.3807 66.1705 14.4489 66.4243 14.5057L67.4698 14.7557C67.9773 14.8693 68.4433 15.0208 68.8675 15.2102C69.2917 15.3996 69.6592 15.6326 69.9698 15.9091C70.2804 16.1856 70.5209 16.5114 70.6914 16.8864C70.8656 17.2614 70.9546 17.6913 70.9584 18.1761C70.9546 18.8883 70.7728 19.5057 70.413 20.0284C70.0569 20.5473 69.5417 20.9508 68.8675 21.2386C68.197 21.5227 67.3883 21.6648 66.4414 21.6648C65.502 21.6648 64.6838 21.5208 63.9868 21.233C63.2936 20.9451 62.752 20.5189 62.3618 19.9545C61.9755 19.3864 61.7728 18.6837 61.7539 17.8466H64.1345C64.1611 18.2367 64.2728 18.5625 64.4698 18.8239C64.6705 19.0814 64.9376 19.2765 65.2709 19.4091C65.608 19.5379 65.9887 19.6023 66.413 19.6023C66.8296 19.6023 67.1914 19.5417 67.4982 19.4205C67.8088 19.2992 68.0493 19.1307 68.2198 18.9148C68.3902 18.6989 68.4755 18.4508 68.4755 18.1705C68.4755 17.9091 68.3978 17.6894 68.2425 17.5114C68.091 17.3333 67.8675 17.1818 67.572 17.0568C67.2804 16.9318 66.9224 16.8182 66.4982 16.7159L65.2311 16.3977C64.2501 16.1591 63.4755 15.786 62.9073 15.2784C62.3391 14.7708 62.0569 14.0871 62.0607 13.2273C62.0569 12.5227 62.2444 11.9072 62.6232 11.3807C63.0058 10.8542 63.5304 10.4432 64.197 10.1477C64.8637 9.85227 65.6213 9.70455 66.4698 9.70455C67.3334 9.70455 68.0872 9.85227 68.7311 10.1477C69.3789 10.4432 69.8827 10.8542 70.2425 11.3807C70.6023 11.9072 70.788 12.517 70.7993 13.2102H68.4414ZM72.0101 11.892V9.86364H81.5669V11.892H78.0044V21.5H75.5726V11.892H72.0101ZM82.9807 21.5V9.86364H90.8216V11.892H85.441V14.6648H90.4182V16.6932H85.441V19.4716H90.8444V21.5H82.9807ZM92.6176 21.5V9.86364H97.2085C98.0873 9.86364 98.8373 10.0208 99.4585 10.3352C100.084 10.6458 100.559 11.0871 100.885 11.6591C101.214 12.2273 101.379 12.8958 101.379 13.6648C101.379 14.4375 101.212 15.1023 100.879 15.6591C100.546 16.2121 100.063 16.6364 99.4301 16.9318C98.8013 17.2273 98.04 17.375 97.146 17.375H94.0722V15.3977H96.7483C97.218 15.3977 97.6081 15.3333 97.9188 15.2045C98.2294 15.0758 98.4604 14.8826 98.6119 14.625C98.7672 14.3674 98.8449 14.0473 98.8449 13.6648C98.8449 13.2784 98.7672 12.9527 98.6119 12.6875C98.4604 12.4223 98.2275 12.2216 97.9131 12.0852C97.6025 11.9451 97.2104 11.875 96.7369 11.875H95.0778V21.5H92.6176ZM98.9017 16.2045L101.794 21.5H99.0778L96.2483 16.2045H98.9017Z" fill="#222222"/>
</svg>
