<svg width="42" height="50" viewBox="0 0 42 50" fill="none" xmlns="http://www.w3.org/2000/svg">
<path d="M21.0846 8.96784C22.5956 8.98718 24.0368 9.58001 25.1072 10.622C27.3725 12.8248 27.3725 16.4011 25.1072 18.6082C22.8395 20.8125 19.163 20.8125 16.8974 18.6082C14.628 16.4007 14.628 12.8248 16.8974 10.622C18.0042 9.54055 19.5161 8.94571 21.0846 8.96784ZM21.0006 0C12.7064 0 5.97681 6.54557 5.97681 14.6136C5.97681 17.7534 7.35029 22.5119 10.2655 25.8181L20.9995 37.9734L31.7335 25.8181C34.652 22.511 36.025 17.753 36.025 14.6136C36.0262 6.54497 29.2973 0 20.9991 0H21.0006Z" fill="black"/>
<path d="M6.57471 31.5515C6.02939 31.5515 5.54778 31.8929 5.37896 32.3965L3.12061 39.1947H18.2888L11.5393 31.5514L6.57471 31.5515Z" fill="black"/>
<path d="M30.4608 31.5515L23.7153 39.194H38.8763L36.6211 32.3958C36.4519 31.8922 35.9679 31.5508 35.423 31.5508H30.4608V31.5515Z" fill="black"/>
<path d="M2.33128 41.5688L0.0619202 48.4034C-0.200592 49.1916 0.40437 49.9971 1.25768 49.9996L40.743 49.9999C41.5947 49.9976 42.1996 49.192 41.9388 48.4038L39.6694 41.5692L2.33128 41.5688Z" fill="black"/>
</svg>
