<svg width="100" height="100" viewBox="0 0 100 100" fill="none" xmlns="http://www.w3.org/2000/svg">
<path fill-rule="evenodd" clip-rule="evenodd" d="M44.245 19.4154C22.3303 14.5848 20.4034 15.8538 14.3532 38.4334C9.10551 58.203 8.93596 65.4972 13.7943 66.799C14.0719 66.8734 15.7741 67.9246 17.5901 69.1055C26.6455 75.1024 75.3506 84.3343 78.4808 80.6106C80.9466 77.7007 89.0693 50.7172 89.8995 42.8066C90.7083 34.7911 88.2531 31.5545 80.0138 29.5451C72.9312 27.8457 73.2019 31.0921 80.3274 33.0014C85.6485 34.4272 85.6575 34.5783 79.923 56.3499C74.4364 77.1961 74.6192 76.6996 71.2159 76.6307C65.0015 76.503 31.2766 67.8135 16.7784 64.1767C16.1185 61.2724 15.6175 62.0308 19.6812 41.4976C23.6143 21.8221 23.6854 21.742 37.726 23.57C47.5461 24.8623 49.2952 25.1822 59.6878 27.6694C69.34 29.9581 70.9165 30.1822 71.1025 29.4881C71.6265 27.3473 59.3298 22.7135 44.245 19.4154ZM78.4715 36.9674C76.5636 37.7951 71.9251 40.6684 56.6954 50.1261C51.6343 53.2829 51.7734 53.3201 48.5042 49.4191C43.4909 43.5133 39.0378 38.8487 35.8778 33.985C31.381 27.077 28.191 23.9906 26.5483 24.9391C25.5509 25.5149 30.7845 32.8186 37.297 44.234L40.13 49.2085C39.954 49.3101 30.3466 53.3315 25.4944 57.1889C22.2205 59.7831 24.6044 61.0665 27.1419 60.1099C29.8092 59.0393 34.614 55.9131 41.5864 51.7312L43.319 53.0385C46.0844 55.1184 52.2762 55.8849 54.879 54.4994C56.7316 53.5081 58.1977 53.405 57.9745 54.2378C57.8133 54.8393 64.9296 66.9621 67.5601 70.8408C69.0571 73.0272 74.2985 76.4153 70.9527 69.4686C68.481 64.4422 63.3451 55.4785 61.2714 53.0384C60.7815 52.4608 60.4766 51.9328 60.594 51.865C68.4685 49.3134 77.3799 43.8161 80.9265 40.204C85.3102 35.8739 79.4193 36.5766 78.4715 36.9674Z" fill="#4833F5"/>
</svg>
