<svg width="161" height="85" viewBox="0 0 161 85" fill="none" xmlns="http://www.w3.org/2000/svg">
<path fill-rule="evenodd" clip-rule="evenodd" d="M157.387 76.1354C154.361 71.2199 145.458 59.7061 138.229 41.001C137.143 38.152 136.121 37.2707 135.275 38.421C133.838 40.4685 134.811 44.2716 139.604 54.5782C144.13 64.4023 142.053 59.9253 133.137 52.1551C87.6853 12.4746 77.2901 22.2797 70.2399 20.613L66.9581 17.8442C50.1008 3.70461 7.06787 -5.40696 1.59975 4.00103C-0.229624 7.16959 1.07844 7.74277 10.9484 7.86888C29.7373 8.19118 47.7987 12.8645 60.2636 20.6073C63.3145 22.5144 63.3115 22.3309 59.8401 24.3694C45.2022 32.8171 53.6408 66.2063 71.3359 69.6848C86.8381 72.7349 92.3219 50.115 80.4023 32.3436C77.4174 27.9251 77.3144 28.2303 81.9555 28.8339C106.971 32.0594 130.725 58.666 140.815 67.3686C144.295 70.3613 144.252 70.3733 136.713 67.9142C123.091 63.4366 121.421 63.237 120.87 65.8323C119.992 69.6232 122.141 71.2646 131.896 74.2383C143.621 77.8389 148.772 79.8297 154.083 82.9322C162.246 87.718 160.658 81.4471 157.387 76.1354ZM82.8803 54.862C79.6757 63.7558 68.6056 64.3207 61.5733 55.9994C52.3541 45.0316 54.7367 33.5873 67.0361 30.1993C71.8071 28.8747 74.2803 33.107 74.752 33.4886C81.1164 40.6958 84.6703 49.9953 82.8803 54.862Z" fill="#4833F5"/>
</svg>
