<svg width="47" height="50" viewBox="0 0 47 50" fill="none" xmlns="http://www.w3.org/2000/svg">
<path fill-rule="evenodd" clip-rule="evenodd" d="M31.2802 29.0216H47V35.6459C47 37.0657 46.5235 38.8004 44.7771 38.8004H31.2808C26.835 38.8004 25.8823 29.0208 31.2808 29.0208L31.2802 29.0216ZM5.8748 9.14823H14.9254L29.8511 0.630894L30.8038 0L31.2803 0.94635L36.3612 9.14827H43.5065C44.3006 9.14827 44.9357 9.77916 44.9357 10.568V14.9846C44.9357 16.0888 41.9187 16.0888 41.9187 14.9846V12.3031H38.2666L39.5368 14.3537C39.8544 14.9846 39.6958 15.6154 39.2193 15.9309C38.7427 16.2463 37.949 16.0888 37.6315 15.4575L30.0097 2.99738L7.46243 15.9311C6.82731 16.2466 6.1922 16.0891 5.87467 15.6157C5.55711 15.1423 5.71571 14.3539 6.3512 14.196L9.36817 12.3033H6.5101C2.38182 12.3033 2.38182 17.8237 6.5101 17.8237H44.9359V26.4986H31.281C22.0714 26.4986 23.0241 41.3251 31.281 41.3251H44.9359V48.5803C44.9359 49.3691 44.3007 50 43.5066 50H6.03357C2.85797 50 0 46.8455 0 41.9559V14.9845C0 12.303 3.01697 9.14853 5.87504 9.14853L5.8748 9.14823ZM32.5501 31.8606C33.8203 31.8606 34.773 32.807 34.773 33.9112C34.773 35.0154 33.8203 35.9617 32.5501 35.9617C31.4385 35.9617 30.4858 35.0154 30.4858 33.9112C30.4858 32.807 31.4385 31.8606 32.5501 31.8606Z" fill="#1B1B1B"/>
</svg>
