<?xml version="1.0" standalone="no"?>
<!DOCTYPE svg PUBLIC "-//W3C//DTD SVG 20010904//EN"
 "http://www.w3.org/TR/2001/REC-SVG-20010904/DTD/svg10.dtd">
<svg version="1.0" xmlns="http://www.w3.org/2000/svg"
 width="700.000000pt" height="700.000000pt" viewBox="0 0 700.000000 700.000000"
 preserveAspectRatio="xMidYMid meet">
<metadata>
Created by potrace 1.14, written by Peter Selinger 2001-2017
</metadata>
<g transform="translate(0.000000,700.000000) scale(0.100000,-0.100000)"
fill="#000000" stroke="none">
<path d="M3278 6995 c-1 -1 -41 -6 -87 -9 -118 -10 -265 -31 -416 -61 -310
-62 -709 -214 -1005 -383 -86 -49 -301 -187 -339 -218 -9 -7 -52 -41 -96 -75
-134 -104 -342 -300 -460 -434 -121 -136 -278 -352 -380 -520 -50 -82 -206
-387 -201 -392 2 -2 54 23 117 55 253 128 512 225 814 303 66 17 131 33 145
35 14 3 41 9 60 14 38 10 64 15 155 30 33 5 70 12 83 14 49 10 251 36 320 42
40 3 81 7 92 9 114 22 780 22 960 0 14 -1 57 -6 95 -10 74 -7 266 -32 300 -38
11 -3 42 -8 68 -11 27 -4 59 -9 70 -12 12 -2 34 -6 49 -9 246 -45 633 -159
851 -250 l37 -15 -22 -57 c-47 -126 -152 -260 -253 -325 -110 -70 -263 -116
-389 -119 l-68 -2 48 -41 c44 -38 279 -242 449 -390 62 -54 114 -100 149 -131
6 -5 43 -37 81 -70 39 -33 86 -74 105 -91 19 -17 127 -111 240 -209 113 -98
224 -195 247 -216 l43 -39 490 0 c269 0 490 -2 490 -4 0 -3 -30 -56 -66 -118
-37 -62 -74 -126 -84 -143 -51 -89 -316 -521 -427 -695 -70 -111 -132 -209
-138 -218 -48 -80 -297 -446 -435 -637 -125 -175 -144 -197 -151 -179 -3 11
-5 28 -3 39 1 11 5 39 8 63 13 101 148 418 260 608 13 23 55 95 94 160 38 66
113 191 167 279 53 88 105 174 115 190 9 17 51 84 92 150 87 139 85 142 -39
100 -104 -36 -248 -111 -369 -191 -101 -67 -195 -134 -204 -144 -3 -3 -25 -21
-50 -40 -25 -19 -47 -37 -50 -40 -3 -3 -32 -27 -65 -55 -33 -27 -65 -54 -71
-60 -14 -12 -197 -179 -235 -215 -61 -56 -172 -140 -219 -166 -19 -10 -42 -24
-50 -30 -17 -13 -169 -91 -241 -123 -94 -42 -323 -111 -462 -140 -151 -32
-206 -40 -382 -56 -73 -7 -354 -7 -365 0 -5 3 23 38 64 78 155 152 272 337
339 539 19 57 38 119 41 138 5 31 2 28 -25 -24 -104 -201 -355 -474 -671 -732
-128 -105 -159 -129 -248 -193 -86 -63 -337 -231 -343 -231 -3 0 -34 -17 -68
-39 -123 -74 -230 -127 -444 -221 -22 -10 -91 -35 -154 -55 l-114 -38 44 -39
c150 -134 382 -303 564 -410 370 -219 847 -385 1274 -444 25 -3 57 -8 71 -10
193 -30 696 -24 907 10 21 4 54 9 73 11 19 3 46 7 60 10 14 3 41 8 60 11 19 4
71 15 115 26 44 10 87 21 96 23 25 5 157 45 219 65 178 57 568 235 660 300 15
11 33 20 39 20 6 0 11 5 11 10 0 6 5 10 10 10 15 0 220 141 330 227 151 117
324 281 450 422 36 41 70 79 76 85 65 68 263 353 352 508 47 80 182 351 182
364 0 3 8 24 19 47 53 118 147 417 177 562 17 81 54 301 59 350 4 33 9 71 11
85 9 46 11 524 4 605 -15 153 -21 210 -25 225 -2 8 -7 35 -10 60 -17 129 -80
384 -136 552 -325 969 -1073 1762 -2015 2136 -237 95 -544 180 -744 207 -19 3
-46 7 -60 10 -13 2 -52 7 -86 11 -33 3 -74 8 -90 10 -33 5 -540 14 -546 9z"/>
<path d="M2028 5105 c-1 -1 -46 -6 -98 -9 -52 -4 -104 -9 -115 -11 -11 -2 -40
-7 -65 -9 -25 -3 -67 -8 -95 -11 -27 -4 -108 -17 -180 -30 -71 -13 -146 -27
-165 -30 -141 -24 -699 -165 -810 -205 -14 -5 -84 -27 -156 -49 l-131 -41 -41
-127 c-38 -116 -75 -252 -87 -314 -3 -13 -11 -58 -20 -99 -29 -147 -35 -193
-52 -370 -15 -158 -8 -606 12 -708 1 -9 6 -42 9 -72 21 -178 81 -435 149 -635
120 -353 242 -588 489 -949 7 -10 16 -2 183 148 180 163 231 211 306 286 83
84 116 127 105 138 -14 14 -162 4 -261 -17 -55 -12 -110 -24 -123 -27 -20 -4
-22 -2 -13 15 17 31 158 156 256 226 216 155 556 334 860 453 99 39 279 110
400 158 564 222 845 384 1010 585 97 117 90 309 -18 509 -116 213 -338 448
-572 604 -78 52 -58 51 -325 21 -25 -3 -74 -7 -110 -10 -36 -2 -86 -7 -112
-11 -27 -3 -48 -3 -48 0 0 20 66 147 104 199 79 110 253 262 369 322 20 11 37
24 37 29 0 5 -3 7 -6 4 -3 -4 -20 -2 -37 3 -18 5 -52 12 -77 15 -25 3 -72 9
-105 13 -55 8 -459 13 -467 6z"/>
</g>
</svg>
