<svg width="32" height="32" viewBox="0 0 32 32" fill="none" xmlns="http://www.w3.org/2000/svg">
<circle cx="16" cy="16" r="16" fill="url(#paint0_radial_238_1117)"/>
<circle cx="16" cy="16" r="16" fill="url(#paint1_radial_238_1117)"/>
<path d="M12.8895 16.0005C12.8895 14.2822 14.282 12.889 16.0002 12.889C17.7184 12.889 19.1117 14.2822 19.1117 16.0005C19.1117 17.7187 17.7184 19.1119 16.0002 19.1119C14.282 19.1119 12.8895 17.7187 12.8895 16.0005ZM11.2075 16.0005C11.2075 18.6475 13.3532 20.7932 16.0002 20.7932C18.6473 20.7932 20.793 18.6475 20.793 16.0005C20.793 13.3534 18.6473 11.2077 16.0002 11.2077C13.3532 11.2077 11.2075 13.3533 11.2075 16.0005H11.2075ZM19.8627 11.0177C19.8626 11.2392 19.9282 11.4558 20.0512 11.64C20.1742 11.8243 20.3491 11.9679 20.5537 12.0527C20.7584 12.1376 20.9836 12.1599 21.2008 12.1167C21.4181 12.0736 21.6177 11.967 21.7744 11.8104C21.9311 11.6539 22.0379 11.4543 22.0812 11.2371C22.1245 11.0198 22.1024 10.7946 22.0177 10.5899C21.933 10.3852 21.7895 10.2102 21.6054 10.0871C21.4213 9.96394 21.2047 9.89817 20.9832 9.89808H20.9828C20.6858 9.89822 20.4011 10.0162 20.1911 10.2261C19.9811 10.436 19.863 10.7207 19.8627 11.0177ZM12.2294 23.5979C11.3194 23.5565 10.8248 23.4049 10.4961 23.2769C10.0603 23.1072 9.74939 22.9052 9.42249 22.5787C9.09558 22.2522 8.89323 21.9416 8.72432 21.5058C8.59619 21.1773 8.44461 20.6825 8.40325 19.7725C8.358 18.7887 8.34896 18.4932 8.34896 16.0006C8.34896 13.5081 8.35874 13.2133 8.40325 12.2287C8.44469 11.3187 8.59739 10.8249 8.72432 10.4954C8.89397 10.0596 9.09603 9.74866 9.42249 9.42176C9.74894 9.09486 10.0596 8.8925 10.4961 8.7236C10.8246 8.59547 11.3194 8.44389 12.2294 8.40252C13.2132 8.35727 13.5088 8.34823 16.0002 8.34823C18.4916 8.34823 18.7875 8.35787 19.7721 8.40267C20.6821 8.44411 21.1759 8.59681 21.5055 8.72375C21.9412 8.89265 22.2521 9.09545 22.5791 9.42191C22.906 9.74836 23.1076 10.0597 23.2772 10.4955C23.4053 10.8241 23.5569 11.3188 23.5983 12.2288C23.6435 13.2135 23.6526 13.5082 23.6526 16.0008C23.6526 18.4933 23.6435 18.788 23.5983 19.7727C23.5569 20.6827 23.4045 21.1773 23.2772 21.506C23.1076 21.9418 22.9055 22.2527 22.5791 22.5789C22.2526 22.905 21.9412 23.1074 21.5055 23.277C21.1769 23.4051 20.6821 23.5567 19.7721 23.5981C18.7883 23.6433 18.4928 23.6524 16.0002 23.6524C13.5077 23.6524 13.2129 23.6433 12.2294 23.5981V23.5979ZM12.1521 6.72327C11.1585 6.76852 10.4795 6.92608 9.88656 7.15681C9.27285 7.39508 8.75262 7.71474 8.23315 8.23339C7.71367 8.75205 7.39483 9.27235 7.15656 9.8868C6.92583 10.4801 6.76828 11.1587 6.72303 12.1524C6.67703 13.1476 6.6665 13.4657 6.6665 16.0005C6.6665 18.5352 6.67703 18.8534 6.72303 19.8486C6.76828 20.8423 6.92583 21.5208 7.15656 22.1141C7.39483 22.7278 7.71375 23.2491 8.23315 23.7675C8.75255 24.2859 9.2721 24.6052 9.88656 24.8441C10.4806 25.0748 11.1585 25.2324 12.1521 25.2776C13.1478 25.3229 13.4655 25.3342 16.0002 25.3342C18.5349 25.3342 18.8531 25.3236 19.8483 25.2776C20.842 25.2324 21.5205 25.0748 22.1139 24.8441C22.7276 24.6052 23.2478 24.2862 23.7673 23.7675C24.2867 23.2489 24.6049 22.7278 24.8439 22.1141C25.0746 21.5208 25.2329 20.8422 25.2774 19.8486C25.3226 18.8526 25.3332 18.5352 25.3332 16.0005C25.3332 13.4657 25.3226 13.1476 25.2774 12.1524C25.2321 11.1587 25.0746 10.4798 24.8439 9.8868C24.6049 9.27309 24.2859 8.75287 23.7673 8.23339C23.2486 7.71392 22.7276 7.39508 22.1146 7.15681C21.5205 6.92608 20.8419 6.76778 19.8491 6.72327C18.8537 6.6778 18.5357 6.66675 16.0013 6.66675C13.467 6.66675 13.1482 6.67728 12.1525 6.72327" fill="white"/>
<defs>
<radialGradient id="paint0_radial_238_1117" cx="0" cy="0" r="1" gradientUnits="userSpaceOnUse" gradientTransform="translate(2.07101 31.299) scale(40.6281)">
<stop offset="0.09" stop-color="#FA8F21"/>
<stop offset="0.78" stop-color="#D82D7E"/>
</radialGradient>
<radialGradient id="paint1_radial_238_1117" cx="0" cy="0" r="1" gradientUnits="userSpaceOnUse" gradientTransform="translate(22.1653 30.2715) scale(35.7531)">
<stop offset="0.64" stop-color="#8C3AAA" stop-opacity="0"/>
<stop offset="1" stop-color="#8C3AAA"/>
</radialGradient>
</defs>
</svg>
