<svg width="32" height="32" viewBox="0 0 32 32" fill="none" xmlns="http://www.w3.org/2000/svg">
<circle cx="16" cy="16" r="16" fill="#1B1B1B"/>
<path d="M14.5299 13.937V13.3496C14.3259 13.3173 14.12 13.2996 13.9135 13.2966C11.9149 13.2924 10.1454 14.5876 9.54522 16.494C8.94502 18.4004 9.65349 20.4756 11.294 21.6171C10.6924 20.9732 10.29 20.1691 10.1354 19.3016C9.98084 18.4341 10.0806 17.5404 10.4227 16.7284C10.7649 15.9164 11.3347 15.2207 12.0635 14.7254C12.7922 14.2301 13.6488 13.9563 14.5297 13.9371L14.5299 13.937Z" fill="#25F4EE"/>
<path d="M14.6404 20.5914C15.7579 20.5899 16.6764 19.7096 16.7253 18.5932V8.6308H18.5453C18.5082 8.42262 18.4905 8.21145 18.4924 8L16.003 8V17.9528C15.9616 19.0748 15.0409 19.9636 13.9181 19.9654C13.5825 19.9626 13.2525 19.8801 12.9551 19.7247C13.1478 19.9917 13.401 20.2095 13.6938 20.3601C13.9867 20.5107 14.3111 20.59 14.6404 20.5914ZM21.9448 12.0109V11.4572C21.275 11.4575 20.62 11.2598 20.0621 10.8891C20.5512 11.4576 21.212 11.8514 21.9448 12.0109Z" fill="#25F4EE"/>
<path d="M20.0619 10.8891C19.5123 10.2633 19.2094 9.45884 19.2097 8.62598H18.5451C18.631 9.08646 18.8097 9.52462 19.0705 9.91372C19.3313 10.3028 19.6686 10.6347 20.0619 10.8891ZM13.9131 15.786C13.447 15.7884 12.9951 15.9465 12.6292 16.2352C12.2634 16.5239 12.0045 16.9266 11.8938 17.3794C11.7831 17.8321 11.8269 18.3089 12.0183 18.7338C12.2097 19.1588 12.5376 19.5076 12.95 19.7247C12.7245 19.4134 12.5895 19.0458 12.5599 18.6626C12.5302 18.2794 12.6071 17.8954 12.782 17.5531C12.9569 17.2108 13.223 16.9235 13.5509 16.723C13.8788 16.5224 14.2558 16.4165 14.6402 16.4168C14.8492 16.4195 15.0567 16.452 15.2565 16.5134V13.9804C15.0525 13.9498 14.8465 13.9337 14.6402 13.9322H14.5294V15.8582C14.3286 15.8043 14.1209 15.78 13.9131 15.786Z" fill="#FE2C55"/>
<path d="M21.9445 12.011V13.937C20.7045 13.9346 19.4966 13.5421 18.4921 12.8151V17.8758C18.4868 20.401 16.4382 22.4453 13.913 22.4453C12.9751 22.447 12.0599 22.1576 11.2935 21.6171C11.9184 22.2893 12.7313 22.7577 13.6263 22.9613C14.5213 23.165 15.4569 23.0943 16.3111 22.7587C17.1654 22.423 17.8988 21.8379 18.4158 21.0795C18.9328 20.3211 19.2094 19.4246 19.2096 18.5067V13.4604C20.2175 14.1826 21.4268 14.57 22.6668 14.5678V12.0879C22.424 12.0871 22.182 12.0614 21.9445 12.011Z" fill="#FE2C55"/>
<path d="M18.4926 17.8757V12.8151C19.5002 13.538 20.7097 13.9254 21.9498 13.9226V11.9966C21.2172 11.8419 20.5547 11.4532 20.0623 10.8891C19.669 10.6347 19.3317 10.3028 19.0709 9.91372C18.8101 9.52462 18.6313 9.08646 18.5455 8.62598H16.7255V18.5933C16.7078 19.0272 16.5554 19.4448 16.2894 19.788C16.0234 20.1313 15.6572 20.3831 15.2415 20.5086C14.8258 20.6341 14.3813 20.627 13.9699 20.4883C13.5584 20.3495 13.2004 20.0861 12.9455 19.7345C12.5331 19.5173 12.205 19.1686 12.0136 18.7436C11.8222 18.3186 11.7783 17.8418 11.889 17.389C11.9997 16.9362 12.2587 16.5334 12.6246 16.2447C12.9905 15.956 13.4425 15.7979 13.9086 15.7956C14.1176 15.7975 14.3253 15.8299 14.5249 15.892V13.9659C13.6392 13.9809 12.7771 14.2533 12.0435 14.7499C11.31 15.2464 10.7367 15.9457 10.3937 16.7624C10.0507 17.579 9.95274 18.4779 10.1117 19.3493C10.2707 20.2207 10.6799 21.0271 11.2892 21.67C12.0631 22.1927 12.9797 22.4635 13.9135 22.4453C16.4386 22.4453 18.4872 20.4009 18.4926 17.8757Z" fill="white"/>
</svg>
