<svg width="32" height="32" viewBox="0 0 32 32" fill="none" xmlns="http://www.w3.org/2000/svg">
<path fill-rule="evenodd" clip-rule="evenodd" d="M16 32C24.8366 32 32 24.8366 32 16C32 7.16344 24.8366 0 16 0C7.16344 0 0 7.16344 0 16C0 24.8366 7.16344 32 16 32ZM23.58 10.7598C23.7777 11.2686 23.913 11.8501 23.9519 12.7017C23.9907 13.5548 24 13.8273 24 16C24 18.1726 23.9907 18.4451 23.9519 19.2983C23.913 20.1498 23.7778 20.7313 23.58 21.2402C23.1644 22.3148 22.3149 23.1643 21.2404 23.5798C20.7314 23.7777 20.15 23.9128 19.2985 23.9518C18.4453 23.9907 18.1727 23.9999 16.0001 23.9999C13.8275 23.9999 13.5551 23.9907 12.7018 23.9518C11.8502 23.9128 11.2687 23.7777 10.7599 23.5798C10.2261 23.379 9.74243 23.0641 9.3429 22.6571C8.93591 22.2576 8.62097 21.7739 8.42017 21.2402C8.22241 20.7313 8.08716 20.1498 8.04834 19.2983C8.00928 18.4452 8 18.1726 8 15.9999C8 13.8273 8.00928 13.5548 8.04834 12.7015C8.08704 11.8501 8.22217 11.2686 8.4198 10.7596C8.62073 10.2258 8.93579 9.74231 9.34277 9.34277C9.74243 8.93579 10.226 8.62085 10.7598 8.42004C11.2687 8.22229 11.8501 8.08704 12.7017 8.0481C13.5548 8.00928 13.8274 8 16 8C18.1726 8 18.4452 8.00928 19.2983 8.04834C20.1499 8.08704 20.7313 8.22217 21.2402 8.4198C21.774 8.62073 22.2577 8.93579 22.6572 9.34277C23.0642 9.74243 23.3792 10.226 23.58 10.7598ZM22.2365 20.7183C22.3459 20.4364 22.4763 20.0128 22.5118 19.2328C22.5504 18.3892 22.5585 18.1362 22.5585 16C22.5585 13.8639 22.5503 13.6108 22.5118 12.7673C22.4763 11.9873 22.3459 11.5637 22.2363 11.2819C22.1082 10.9343 21.9037 10.62 21.6379 10.3619C21.3799 10.0963 21.0656 9.89185 20.7181 9.76355C20.4362 9.65405 20.0127 9.52368 19.2327 9.48816C18.3891 9.44959 18.136 9.44141 16 9.44141C13.8639 9.44141 13.6108 9.44958 12.7673 9.48804C11.9873 9.52368 11.5637 9.65393 11.2819 9.76355C10.9343 9.89172 10.62 10.0962 10.3619 10.3619C10.0963 10.62 9.89172 10.9343 9.76343 11.2819C9.65393 11.5637 9.52368 11.9873 9.48804 12.7673C9.44958 13.611 9.44141 13.8639 9.44141 16.0001C9.44141 18.1362 9.44958 18.3893 9.48804 19.2328C9.52356 20.0128 9.65393 20.4364 9.76343 20.7183C9.89172 21.0658 10.0962 21.38 10.3619 21.6381C10.62 21.9038 10.9343 22.1083 11.2817 22.2366C11.5637 22.3461 11.9873 22.4764 12.7672 22.512C13.6107 22.5505 13.8636 22.5586 16 22.5586C18.1362 22.5586 18.3893 22.5505 19.2327 22.512C20.0127 22.4764 20.4363 22.3461 20.7181 22.2366C21.4159 21.9674 21.9673 21.416 22.2365 20.7183ZM11.8926 15.9998C11.8926 13.731 13.7318 11.8916 16.0006 11.8916C18.2695 11.8916 20.1088 13.731 20.1088 15.9998C20.1088 18.2685 18.2695 20.1078 16.0006 20.1078C13.7318 20.1078 11.8926 18.2685 11.8926 15.9998ZM13.3341 15.9996C13.334 17.4724 14.528 18.6663 16.0006 18.6664C17.4734 18.6664 18.6674 17.4724 18.6674 15.9996C18.6674 14.527 17.4735 13.3331 16.0007 13.333C14.528 13.333 13.3341 14.527 13.3341 15.9996ZM21.2304 11.7296C21.2304 12.2598 20.8006 12.6896 20.2705 12.6896C19.7402 12.6896 19.3104 12.2598 19.3104 11.7296C19.3104 11.1993 19.7402 10.7695 20.2705 10.7695C20.8006 10.7695 21.2304 11.1993 21.2304 11.7296Z" fill="white"/>
</svg>
