<svg width="32" height="33" viewBox="0 0 32 33" fill="none" xmlns="http://www.w3.org/2000/svg">
<path fill-rule="evenodd" clip-rule="evenodd" d="M16 32.002C24.8366 32.002 32 24.8385 32 16.002C32 7.1654 24.8366 0.00195312 16 0.00195312C7.16344 0.00195312 0 7.1654 0 16.002C0 24.8385 7.16344 32.002 16 32.002ZM13.2127 21.8452L13.4773 18.1226L20.2953 12.0006C20.592 11.7379 20.2313 11.5926 19.8347 11.8552L11.406 17.1292L7.77734 16.0006C6.988 15.7559 6.97334 15.2159 7.942 14.8399L22.1353 9.4059C22.7927 9.16123 23.3673 9.55123 23.1533 10.5486L23.1527 10.5492L20.738 21.8639C20.556 22.6626 20.0807 22.8606 19.406 22.4846L15.7273 19.7906L13.952 21.4872C13.7553 21.6826 13.5913 21.8452 13.2127 21.8452Z" fill="white"/>
</svg>
