<svg width="32" height="33" viewBox="0 0 32 33" fill="none" xmlns="http://www.w3.org/2000/svg">
<path fill-rule="evenodd" clip-rule="evenodd" d="M16 32.002C24.8366 32.002 32 24.8385 32 16.002C32 7.1654 24.8366 0.00195312 16 0.00195312C7.16344 0.00195312 0 7.1654 0 16.002C0 24.8385 7.16344 32.002 16 32.002ZM16.503 20.7617H15.4035C15.4035 20.7617 12.9768 20.8953 10.8388 18.8603C8.50875 16.6403 6.4501 12.2371 6.4501 12.2371C6.4501 12.2371 6.33164 11.9489 6.46045 11.809C6.60536 11.6523 6.99984 11.6418 6.99984 11.6418L9.62893 11.6271C9.62893 11.6271 9.87735 11.665 10.0545 11.7838C10.2005 11.8816 10.2822 12.0646 10.2822 12.0646C10.2822 12.0646 10.7077 13.0479 11.2701 13.9365C12.3684 15.6728 12.8802 16.0524 13.254 15.8663C13.798 15.595 13.6347 13.4128 13.6347 13.4128C13.6347 13.4128 13.645 12.6199 13.361 12.2676C13.1413 11.9941 12.7273 11.9142 12.5444 11.8921C12.396 11.8742 12.6387 11.5598 12.9538 11.4189C13.4265 11.2075 14.2626 11.1949 15.2494 11.2043C16.0188 11.2117 16.2396 11.2559 16.5409 11.3221C17.2389 11.476 17.2172 11.9699 17.1703 13.0357C17.1564 13.3538 17.1401 13.7228 17.1401 14.149C17.1401 14.2451 17.1371 14.3476 17.1339 14.4531C17.1175 14.9984 17.0987 15.623 17.4909 15.8547C17.6922 15.9736 18.1856 15.8726 19.4173 13.9597C20.0015 13.0531 20.4397 11.9868 20.4397 11.9868C20.4397 11.9868 20.5352 11.7975 20.6835 11.7154C20.8365 11.6324 21.0412 11.6576 21.0412 11.6576L23.806 11.6429C23.806 11.6429 24.6375 11.5524 24.7721 11.8953C24.9136 12.2549 24.4616 13.0963 23.331 14.4739C22.2624 15.7762 21.7404 16.2583 21.7838 16.6826C21.8158 16.9954 22.155 17.2767 22.8089 17.8318C24.1754 18.9916 24.5371 19.5985 24.6215 19.7402C24.628 19.7511 24.6328 19.7593 24.6364 19.7647C25.2459 20.6891 23.9601 20.7617 23.9601 20.7617L21.5024 20.7933C21.5024 20.7933 20.9745 20.889 20.2799 20.4525C19.9166 20.2243 19.5615 19.852 19.2231 19.4972C18.7054 18.9545 18.2269 18.4528 17.8187 18.5711C17.1332 18.7699 17.1551 20.1191 17.1551 20.1191C17.1551 20.1191 17.1608 20.4073 17.0044 20.5608C16.8354 20.7281 16.503 20.7617 16.503 20.7617Z" fill="white"/>
</svg>
