<svg width="32" height="32" viewBox="0 0 32 32" fill="none" xmlns="http://www.w3.org/2000/svg">
<circle cx="16" cy="16" r="16" fill="white"/>
<path d="M14.5287 13.9368V13.3493C14.3247 13.317 14.1188 13.2994 13.9123 13.2964C11.9137 13.2921 10.1442 14.5873 9.544 16.4937C8.9438 18.4001 9.65227 20.4754 11.2928 21.6168C10.6912 20.973 10.2888 20.1688 10.1342 19.3013C9.97962 18.4338 10.0794 17.5402 10.4215 16.7281C10.7636 15.9161 11.3335 15.2205 12.0623 14.7252C12.791 14.2299 13.6476 13.9561 14.5285 13.9369L14.5287 13.9368Z" fill="#25F4EE"/>
<path d="M14.6392 20.5914C15.7566 20.5899 16.6752 19.7096 16.7241 18.5932V8.6308H18.5441C18.507 8.42262 18.4892 8.21145 18.4912 8L16.0018 8V17.9528C15.9604 19.0748 15.0397 19.9636 13.9169 19.9654C13.5813 19.9626 13.2513 19.8801 12.9539 19.7247C13.1466 19.9917 13.3997 20.2095 13.6926 20.3601C13.9855 20.5107 14.3098 20.59 14.6392 20.5914ZM21.9436 12.0109V11.4572C21.2737 11.4575 20.6188 11.2598 20.0609 10.8891C20.5499 11.4576 21.2108 11.8514 21.9436 12.0109Z" fill="#25F4EE"/>
<path d="M20.0607 10.8891C19.5111 10.2633 19.2082 9.45884 19.2084 8.62598H18.5439C18.6297 9.08646 18.8085 9.52462 19.0693 9.91372C19.3301 10.3028 19.6674 10.6347 20.0607 10.8891ZM13.9119 15.786C13.4458 15.7884 12.9939 15.9465 12.628 16.2352C12.2621 16.5239 12.0033 16.9266 11.8926 17.3794C11.7819 17.8321 11.8257 18.3089 12.0171 18.7338C12.2085 19.1588 12.5364 19.5076 12.9488 19.7247C12.7233 19.4134 12.5883 19.0458 12.5587 18.6626C12.529 18.2794 12.6059 17.8954 12.7808 17.5531C12.9556 17.2108 13.2218 16.9235 13.5497 16.723C13.8776 16.5224 14.2546 16.4165 14.639 16.4168C14.848 16.4195 15.0555 16.452 15.2553 16.5134V13.9804C15.0512 13.9498 14.8453 13.9337 14.639 13.9322H14.5282V15.8582C14.3273 15.8043 14.1197 15.78 13.9119 15.786Z" fill="#FE2C55"/>
<path d="M21.944 12.011V13.937C20.704 13.9346 19.4962 13.5421 18.4916 12.8151V17.8758C18.4863 20.401 16.4377 22.4453 13.9125 22.4453C12.9746 22.447 12.0594 22.1576 11.293 21.6171C11.9179 22.2893 12.7309 22.7577 13.6258 22.9613C14.5208 23.165 15.4564 23.0943 16.3106 22.7587C17.1649 22.423 17.8983 21.8379 18.4153 21.0795C18.9323 20.3211 19.2089 19.4246 19.2091 18.5067V13.4604C20.217 14.1826 21.4263 14.57 22.6663 14.5678V12.0879C22.4235 12.0871 22.1815 12.0614 21.944 12.011Z" fill="#FE2C55"/>
<path d="M18.4909 17.8757V12.8151C19.4985 13.538 20.708 13.9254 21.9481 13.9226V11.9966C21.2155 11.8419 20.553 11.4532 20.0606 10.8891C19.6673 10.6347 19.33 10.3028 19.0692 9.91372C18.8084 9.52462 18.6296 9.08646 18.5438 8.62598H16.7238V18.5933C16.7061 19.0272 16.5537 19.4448 16.2877 19.788C16.0217 20.1313 15.6555 20.3831 15.2398 20.5086C14.8241 20.6341 14.3796 20.627 13.9681 20.4883C13.5567 20.3495 13.1987 20.0861 12.9438 19.7345C12.5314 19.5173 12.2033 19.1686 12.0119 18.7436C11.8205 18.3186 11.7766 17.8418 11.8873 17.389C11.998 16.9362 12.2569 16.5334 12.6229 16.2447C12.9888 15.956 13.4408 15.7979 13.9069 15.7956C14.1159 15.7975 14.3236 15.8299 14.5232 15.892V13.9659C13.6375 13.9809 12.7754 14.2533 12.0418 14.7499C11.3083 15.2464 10.735 15.9457 10.392 16.7624C10.049 17.579 9.95103 18.4779 10.11 19.3493C10.269 20.2207 10.6781 21.0271 11.2875 21.67C12.0614 22.1927 12.978 22.4635 13.9117 22.4453C16.4369 22.4453 18.4855 20.4009 18.4909 17.8757Z" fill="#1B1B1B"/>
</svg>
