<svg width="32" height="32" viewBox="0 0 32 32" fill="none" xmlns="http://www.w3.org/2000/svg">
<path fill-rule="evenodd" clip-rule="evenodd" d="M32.001 16.1769C24.9163 16.3912 21.6764 16.5681 19.0924 19.0914C16.5692 21.6754 16.3916 24.9151 16.1778 32C24.8747 31.9058 31.907 24.8736 32.001 16.1769ZM16.0917 32.0007H16.0009H15.9103C15.9405 32.0009 15.9707 32.001 16.001 32.001C16.0312 32.001 16.0615 32.0009 16.0917 32.0007ZM15.8241 32C15.6103 24.9151 15.4328 21.6754 12.9095 19.0914C10.3254 16.5681 7.08555 16.3912 0.000976563 16.1769C0.094928 24.8736 7.12724 31.9058 15.8241 32ZM32.001 15.8238C31.9069 7.12729 24.8746 0.0951655 16.1778 0.000976573C16.3916 7.08569 16.5692 10.3253 19.0924 12.9088C21.6764 15.4326 24.9163 15.6095 32.001 15.8238ZM15.8241 0.000976583C7.12731 0.0951661 0.0950565 7.12729 0.000979141 15.8238C7.08555 15.6095 10.3254 15.4326 12.9095 12.9088C15.4327 10.3253 15.6103 7.08569 15.8241 0.000976583Z" fill="white"/>
</svg>
