<svg width="69" height="13" viewBox="0 0 69 13" fill="none" xmlns="http://www.w3.org/2000/svg">
<path fill-rule="evenodd" clip-rule="evenodd" d="M27.2274 10.1697C24.6775 12.0179 20.9808 13.0007 17.7973 13.0007C13.3359 13.0007 9.31823 11.3809 6.27779 8.68467C6.03934 8.47275 6.25199 8.18365 6.53892 8.34759C9.81897 10.2223 13.8758 11.3514 18.065 11.3514C20.8913 11.3514 23.9982 10.7751 26.8568 9.58419C27.288 9.4049 27.6496 9.8633 27.2274 10.1697V10.1697Z" fill="#F79C34"/>
<path fill-rule="evenodd" clip-rule="evenodd" d="M28.2878 8.98228C27.9614 8.57225 26.1319 8.78801 25.3099 8.88476C25.0609 8.91432 25.0222 8.70048 25.2465 8.54576C26.7062 7.53874 29.0981 7.82936 29.376 8.16683C29.6559 8.5066 29.3021 10.8619 27.9348 11.9857C27.7241 12.1584 27.5239 12.0663 27.6174 11.8383C27.9254 11.0831 28.6142 9.39307 28.2878 8.98228V8.98228Z" fill="#F79C34"/>
<path fill-rule="evenodd" clip-rule="evenodd" d="M25.3684 1.42972V0.45149C25.3691 0.302529 25.4833 0.203477 25.6209 0.203861L30.0858 0.203477C30.2284 0.203477 30.3434 0.305216 30.3434 0.450338V1.2892C30.3418 1.4301 30.221 1.61361 30.0072 1.90501L27.6942 5.14836C28.5526 5.12878 29.4607 5.25509 30.2409 5.68547C30.4169 5.7826 30.4642 5.92657 30.4778 6.06747V7.11135C30.4778 7.25532 30.3176 7.42155 30.1487 7.33517C28.7747 6.62799 26.9511 6.55082 25.4313 7.34362C25.2761 7.42501 25.1139 7.26069 25.1139 7.11672V6.12429C25.1139 5.96573 25.117 5.69391 25.28 5.45204L27.9593 1.67658L25.6263 1.67619C25.4837 1.67619 25.3691 1.57637 25.3684 1.42972V1.42972ZM9.08182 7.54057H7.72344C7.59405 7.53251 7.49085 7.43729 7.4803 7.31521L7.48147 0.467998C7.48147 0.331323 7.59874 0.221906 7.74376 0.221906L9.00872 0.221522C9.14085 0.228048 9.24717 0.326332 9.25538 0.45149V1.34525H9.28118C9.61071 0.480668 10.2319 0.0771679 11.0688 0.0771679C11.9182 0.0771679 12.451 0.480668 12.8314 1.34525C13.1609 0.480668 13.9091 0.0771679 14.7077 0.0771679C15.2784 0.0771679 15.8995 0.307904 16.2799 0.826579C16.7111 1.40323 16.6227 2.23864 16.6227 2.97346L16.6211 7.29448C16.6211 7.43077 16.5043 7.54057 16.3592 7.54057H15.0028C14.866 7.53212 14.7589 7.42616 14.7589 7.29486L14.7585 3.6649C14.7585 3.37696 14.7839 2.65672 14.7202 2.38299C14.6189 1.92152 14.3148 1.79175 13.922 1.79175C13.592 1.79175 13.2496 2.0079 13.1101 2.35343C12.9705 2.69972 12.9834 3.2756 12.9834 3.6649V7.29448C12.9834 7.43077 12.8661 7.54057 12.7215 7.54057H11.3647C11.2283 7.53212 11.1208 7.42616 11.1208 7.29486L11.1192 3.6649C11.1192 2.90128 11.2462 1.77793 10.2827 1.77793C9.3062 1.77793 9.34451 2.87249 9.34451 3.6649L9.34373 7.29448C9.34373 7.43077 9.22646 7.54057 9.08182 7.54057V7.54057ZM34.1992 1.47502C33.1977 1.47502 33.1344 2.81452 33.1344 3.65031C33.1344 4.4861 33.1219 6.27287 34.1871 6.27287C35.2394 6.27287 35.2902 4.83201 35.2902 3.95322C35.2902 3.37696 35.2644 2.68513 35.087 2.13767C34.9349 1.66199 34.6304 1.47502 34.1992 1.47502V1.47502ZM34.1871 0.0771679C36.203 0.0771679 37.2932 1.77793 37.2932 3.93902C37.2932 6.02754 36.0888 7.68492 34.1871 7.68492C32.2087 7.68492 31.131 5.98454 31.131 3.86684C31.131 1.73417 32.2213 0.0771679 34.1871 0.0771679V0.0771679ZM39.9079 7.54057H38.5543C38.4186 7.53212 38.3107 7.42616 38.3107 7.29486L38.3084 0.445347C38.3201 0.319805 38.4327 0.221906 38.5695 0.221906L39.8294 0.221522C39.9482 0.227664 40.0459 0.306752 40.071 0.413098V1.46043H40.0964C40.4771 0.523667 41.0091 0.0771679 41.9473 0.0771679C42.5559 0.0771679 43.152 0.293315 43.5324 0.884167C43.8873 1.43164 43.8873 2.35343 43.8873 3.01646V7.32519C43.8725 7.44651 43.7615 7.54057 43.627 7.54057H42.2655C42.1396 7.53289 42.0384 7.4419 42.0235 7.32519V3.60769C42.0235 2.85828 42.1126 1.76296 41.1741 1.76296C40.8445 1.76296 40.54 1.97911 40.388 2.31043C40.1976 2.72852 40.1722 3.14622 40.1722 3.60769V7.29448C40.1699 7.43077 40.0526 7.54057 39.9079 7.54057V7.54057ZM23.1781 7.52368C23.0886 7.60276 22.9592 7.60814 22.8576 7.55477C22.4065 7.18659 22.3256 7.01652 22.0789 6.66561C21.3335 7.41157 20.8054 7.6354 19.8394 7.6354C18.6961 7.6354 17.8064 6.94204 17.8064 5.55609C17.8064 4.47305 18.404 3.73669 19.255 3.37581C19.9919 3.05792 21.0211 3.00033 21.8092 2.91357V2.74042C21.8092 2.42215 21.8346 2.04744 21.6438 1.77294C21.4785 1.52723 21.1611 1.42626 20.8816 1.42626C20.3632 1.42626 19.9032 1.68694 19.7898 2.22712C19.7659 2.34729 19.6768 2.46668 19.5541 2.47283L18.2371 2.3327C18.1261 2.30774 18.0026 2.22021 18.0343 2.05359C18.3333 0.506774 19.7398 0.0245709 21.018 0.0115176H21.1189C21.7732 0.0195799 22.609 0.195799 23.1179 0.675315C23.7789 1.28191 23.7148 2.09044 23.7148 2.97154V5.0497C23.7148 5.6751 23.9795 5.94922 24.2277 6.28592C24.3149 6.40762 24.334 6.55159 24.2234 6.64066C23.9459 6.86909 23.4529 7.28948 23.182 7.52675L23.1781 7.52368ZM21.8092 4.27111C21.8092 4.79093 21.8217 5.224 21.5551 5.68624C21.3389 6.06133 20.9957 6.29244 20.6146 6.29244C20.0939 6.29244 19.789 5.90277 19.789 5.32497C19.789 4.18856 20.8265 3.98202 21.8092 3.98202V4.27111ZM5.37216 7.52368C5.28226 7.60276 5.15248 7.60814 5.05123 7.55477C4.59974 7.18659 4.51882 7.01652 4.27256 6.66561C3.52672 7.41157 2.999 7.6354 2.03308 7.6354C0.889693 7.6354 0 6.94204 0 5.55609C0 4.47305 0.596907 3.73669 1.44868 3.37581C2.18553 3.05792 3.21478 3.00033 4.00244 2.91357V2.74042C4.00244 2.42215 4.02824 2.04744 3.83748 1.77294C3.67213 1.52723 3.35433 1.42626 3.07522 1.42626C2.55689 1.42626 2.09602 1.68694 1.98344 2.22712C1.95998 2.34729 1.87047 2.46668 1.74733 2.47283L0.430774 2.3327C0.319367 2.30774 0.195842 2.22021 0.227896 2.05359C0.526154 0.506774 1.93301 0.0245709 3.21165 0.0115176H3.3125C3.96687 0.0195799 4.80262 0.195799 5.31157 0.675315C5.9722 1.28191 5.90848 2.09044 5.90848 2.97154V5.0497C5.90848 5.6751 6.17312 5.94922 6.42134 6.28592C6.50773 6.40762 6.52767 6.55159 6.41704 6.64066C6.1395 6.86909 5.64619 7.28948 5.37529 7.52675L5.37216 7.52368ZM4.00244 4.27111C4.00244 4.79093 4.01534 5.224 3.74836 5.68624C3.53258 6.06133 3.18937 6.29244 2.80785 6.29244C2.28717 6.29244 1.98226 5.90277 1.98226 5.32497C1.98226 4.18856 3.02011 3.98202 4.00244 3.98202V4.27111ZM62.4556 9.99689V9.49395C62.4556 9.35075 62.5271 9.25208 62.6792 9.26091C62.9629 9.30046 63.3644 9.34 63.6494 9.28241C64.0215 9.2064 64.2885 8.94725 64.4464 8.59212C64.6688 8.09226 64.8162 7.68915 64.9092 7.42462L62.0834 0.549389C62.0357 0.432678 62.0217 0.216147 62.2589 0.216147H63.2467C63.4352 0.216147 63.5118 0.333626 63.554 0.448802L65.6027 6.0333L67.5584 0.448802C67.5983 0.334394 67.6784 0.216147 67.8652 0.216147H68.7968C69.0325 0.216147 69.0192 0.432294 68.9723 0.549389L66.1691 7.63924C65.8064 8.58291 65.3232 10.086 64.2349 10.347C63.6892 10.4872 63.0009 10.4365 62.5967 10.2702C62.4946 10.2199 62.4556 10.0856 62.4556 9.99689V9.99689ZM61.1378 7.12171C61.1378 7.24956 61.0311 7.35437 60.9002 7.35437H60.2036C60.0531 7.35437 59.9503 7.24764 59.9311 7.12171L59.8611 6.65602C59.541 6.92207 59.1481 7.15588 58.7221 7.31866C57.9027 7.63117 56.9583 7.683 56.1577 7.20003C55.5788 6.85105 55.2716 6.16882 55.2716 5.4651C55.2716 4.9207 55.4424 4.38091 55.8212 3.98893C56.3266 3.45336 57.0592 3.19037 57.9438 3.19037C58.4781 3.19037 59.2427 3.25218 59.799 3.43071V2.49356C59.799 1.54067 59.3905 1.12834 58.3136 1.12834C57.4903 1.12834 56.8606 1.25043 55.9842 1.51802C55.8438 1.52263 55.7618 1.41782 55.7618 1.28997V0.755554C55.7618 0.627325 55.8732 0.503319 55.9939 0.465695C56.6198 0.197719 57.5063 0.0307136 58.4488 0C59.6774 0 61.1378 0.272199 61.1378 2.12807V7.12171ZM59.799 5.75342V4.33945C59.3315 4.2139 58.5579 4.16169 58.2584 4.16169C57.7854 4.16169 57.2675 4.27149 56.997 4.55751C56.7949 4.76713 56.7034 5.06812 56.7034 5.35914C56.7034 5.73538 56.8359 6.11277 57.1455 6.29936C57.5052 6.53931 58.063 6.51013 58.5872 6.36385C59.0911 6.22334 59.5641 5.97494 59.799 5.75342V5.75342ZM50.8669 1.14946C52.4125 1.14946 52.8335 2.34306 52.8335 3.70982C52.8421 4.63122 52.6697 5.45281 52.1838 5.92311C51.8203 6.27517 51.4141 6.37115 50.8028 6.37115C50.2586 6.37115 49.5429 6.09242 49.0081 5.70428V1.79636C49.5648 1.37635 50.2751 1.14946 50.8669 1.14946V1.14946ZM48.7713 10.2422H47.8382C47.7076 10.2422 47.6009 10.1374 47.6009 10.0096V0.461088C47.6009 0.333242 47.7076 0.228432 47.8382 0.228432H48.5523C48.7025 0.228432 48.8053 0.335162 48.8244 0.461088L48.8995 0.961335C49.5683 0.378161 50.4295 0.00422312 51.25 0.00422312C53.5481 0.00422312 54.3037 1.86393 54.3037 3.79773C54.3037 5.86668 53.1478 7.52905 51.1929 7.52905C50.3697 7.52905 49.6 7.23074 49.0081 6.71245V10.0096C49.0081 10.1374 48.9014 10.2422 48.7713 10.2422V10.2422Z" fill="white"/>
</svg>
