<svg width="33" height="14" viewBox="0 0 33 14" fill="none" xmlns="http://www.w3.org/2000/svg">
<path d="M6.23707 1.8052C6.62558 1.31925 6.88923 0.666765 6.81969 0C6.25096 0.0282799 5.55693 0.375213 5.15512 0.861544C4.79434 1.27801 4.47502 1.95782 4.55826 2.59663C5.1967 2.65201 5.83454 2.27752 6.23707 1.8052Z" fill="black"/>
<path d="M6.81218 2.7205C5.88502 2.66527 5.09671 3.2467 4.65395 3.2467C4.21094 3.2467 3.53292 2.74833 2.79959 2.76176C1.84511 2.77578 0.959462 3.31545 0.475105 4.17378C-0.521135 5.89085 0.212198 8.43788 1.18099 9.83635C1.65146 10.5282 2.21845 11.29 2.96555 11.2626C3.67143 11.2349 3.94811 10.8056 4.80614 10.8056C5.66354 10.8056 5.91277 11.2626 6.65999 11.2488C7.43488 11.2349 7.91932 10.5566 8.38978 9.86404C8.9295 9.07536 9.15044 8.31381 9.16433 8.27201C9.15043 8.25816 7.67013 7.69028 7.6564 5.98747C7.64243 4.56169 8.81861 3.8835 8.87396 3.84145C8.20976 2.85909 7.17197 2.74833 6.81218 2.7205Z" fill="black"/>
<path d="M14.8854 0.791018C16.9006 0.791018 18.3038 2.18009 18.3038 4.20247C18.3038 6.23207 16.8717 7.62836 14.8349 7.62836H12.6037V11.1765H10.9917V0.791016H14.8854V0.791018ZM12.6037 6.27524H14.4534C15.8569 6.27524 16.6557 5.51963 16.6557 4.20969C16.6557 2.89989 15.8569 2.15135 14.4606 2.15135H12.6037V6.27524V6.27524Z" fill="black"/>
<path d="M18.7251 9.02454C18.7251 7.70016 19.7399 6.88693 21.5393 6.78615L23.612 6.66384V6.08092C23.612 5.23882 23.0433 4.73503 22.0935 4.73503C21.1937 4.73503 20.6323 5.16677 20.4957 5.8434H19.0275C19.1138 4.47584 20.2796 3.46826 22.151 3.46826C23.9862 3.46826 25.1593 4.43989 25.1593 5.95848V11.1764H23.6694V9.93133H23.6336C23.1947 10.7734 22.2373 11.306 21.2442 11.306C19.7616 11.306 18.7251 10.3847 18.7251 9.02454ZM23.612 8.34083V7.74348L21.7478 7.85856C20.8194 7.92339 20.2941 8.33361 20.2941 8.98137C20.2941 9.64342 20.841 10.0753 21.6759 10.0753C22.7626 10.0753 23.612 9.32676 23.612 8.34083Z" fill="black"/>
<path d="M26.5659 13.9608V12.7013C26.6809 12.73 26.9399 12.73 27.0696 12.73C27.7892 12.73 28.1779 12.4278 28.4153 11.6505C28.4153 11.6361 28.5522 11.1899 28.5522 11.1827L25.8174 3.604H27.5013L29.416 9.76486H29.4446L31.3592 3.604H33.0001L30.1642 11.5712C29.5168 13.4066 28.7682 13.9968 27.1992 13.9968C27.0696 13.9968 26.6809 13.9823 26.5659 13.9608Z" fill="black"/>
</svg>
