<svg width="82" height="16" viewBox="0 0 82 16" fill="none" xmlns="http://www.w3.org/2000/svg">
<g clip-path="url(#clip0_1254_7808)">
<path d="M65.7284 8.93708V12.3893H64.626V3.8501H67.5449C68.2899 3.8501 68.9227 4.09379 69.443 4.59132C69.9736 5.08885 70.2288 5.68789 70.2288 6.3885C70.2288 7.10942 69.9633 7.71864 69.443 8.19586C68.9326 8.68325 68.3002 8.92694 67.5449 8.92694H65.7284V8.93708ZM65.7284 4.90606V7.89125H67.5754C68.0145 7.89125 68.3818 7.74911 68.6675 7.45464C68.9635 7.1602 69.1062 6.81498 69.1062 6.40881C69.1062 6.01285 68.9635 5.66759 68.6675 5.37315C68.3818 5.06854 68.0145 4.91624 67.5754 4.91624H65.7284V4.90606Z" fill="white"/>
<path d="M73.118 6.36133C73.9343 6.36133 74.5771 6.57455 75.0467 7.01116C75.5162 7.44777 75.7508 8.03668 75.7508 8.79821V12.4027H74.6995V11.5904H74.6488C74.1895 12.2606 73.5872 12.5957 72.8319 12.5957C72.1892 12.5957 71.6483 12.4027 71.2096 12.027C70.7705 11.6412 70.5562 11.164 70.5562 10.5954C70.5562 9.99634 70.7808 9.50895 71.2504 9.15356C71.7097 8.79821 72.3219 8.61543 73.0871 8.61543C73.7402 8.61543 74.2811 8.73729 74.7098 8.97082V8.71695C74.7098 8.33112 74.5569 8.01638 74.2506 7.74221C73.9446 7.47821 73.5872 7.34621 73.179 7.34621C72.5668 7.34621 72.077 7.60007 71.7196 8.1179L70.7503 7.50868C71.2809 6.74716 72.077 6.36133 73.118 6.36133ZM71.6891 10.6056C71.6891 10.8899 71.8115 11.1335 72.0564 11.3163C72.3013 11.5092 72.587 11.6006 72.9136 11.6006C73.3728 11.6006 73.7913 11.428 74.1586 11.0929C74.526 10.7477 74.6995 10.3517 74.6995 9.88464C74.3528 9.61047 73.8729 9.47847 73.2607 9.47847C72.8117 9.47847 72.4444 9.59017 72.138 9.80339C71.842 10.0268 71.6891 10.2908 71.6891 10.6056Z" fill="white"/>
<path d="M81.7513 6.55371L78.0774 14.9711H76.9346L78.3021 12.0266L75.8833 6.55371H77.0773L78.8224 10.7472H78.843L80.547 6.55371H81.7513Z" fill="white"/>
<path d="M27.48 12.5835C24.8062 12.5835 22.561 10.4207 22.561 7.7605C22.561 5.10023 24.8062 2.9375 27.48 2.9375C28.9597 2.9375 30.0109 3.51626 30.7967 4.26762L29.8578 5.20176C29.2863 4.67379 28.5209 4.25749 27.4697 4.25749C25.5205 4.25749 23.9897 5.82115 23.9897 7.7605C23.9897 9.69982 25.5104 11.2635 27.4697 11.2635C28.7352 11.2635 29.4598 10.7558 29.919 10.2989C30.2966 9.92321 30.5415 9.38507 30.6436 8.64386H27.4392V7.32389H31.9294C31.9805 7.55742 32.0009 7.84172 32.0009 8.14633C32.0009 9.13124 31.7253 10.3598 30.8579 11.233C30.0006 12.1164 28.9189 12.5835 27.48 12.5835Z" fill="white"/>
<path d="M38.727 9.47664C38.727 11.2637 37.3187 12.5837 35.594 12.5837C33.8693 12.5837 32.4609 11.2637 32.4609 9.47664C32.4609 7.67946 33.8693 6.36963 35.594 6.36963C37.3187 6.36963 38.727 7.67946 38.727 9.47664ZM37.3595 9.47664C37.3595 8.35976 36.5431 7.59824 35.6042 7.59824C34.6653 7.59824 33.8489 8.35976 33.8489 9.47664C33.8489 10.5834 34.6653 11.3551 35.6042 11.3551C36.5431 11.3551 37.3595 10.5834 37.3595 9.47664Z" fill="white"/>
<path d="M45.5435 9.47664C45.5435 11.2637 44.1352 12.5837 42.4106 12.5837C40.6857 12.5837 39.2773 11.2637 39.2773 9.47664C39.2773 7.67946 40.6857 6.36963 42.4106 6.36963C44.1352 6.36963 45.5435 7.67946 45.5435 9.47664ZM44.1657 9.47664C44.1657 8.35976 43.3494 7.59824 42.4106 7.59824C41.4715 7.59824 40.6552 8.35976 40.6552 9.47664C40.6552 10.5834 41.4715 11.3551 42.4106 11.3551C43.3494 11.3551 44.1657 10.5834 44.1657 9.47664Z" fill="white"/>
<path d="M52.0534 6.56254V12.1369C52.0534 14.4316 50.6962 15.3759 49.0838 15.3759C47.5732 15.3759 46.6649 14.3606 46.3178 13.5381L47.5121 13.0406C47.7262 13.5483 48.2468 14.1473 49.0838 14.1473C50.1145 14.1473 50.7469 13.5077 50.7469 12.3197V11.8729H50.6962C50.3899 12.2486 49.7979 12.5837 49.0529 12.5837C47.4916 12.5837 46.063 11.2332 46.063 9.48681C46.063 7.73024 47.4916 6.36963 49.0529 6.36963C49.7979 6.36963 50.3899 6.69454 50.6962 7.06007H50.7469V6.55241H52.0534V6.56254ZM50.8491 9.48681C50.8491 8.3902 50.1144 7.58807 49.1856 7.58807C48.2365 7.58807 47.4507 8.3902 47.4507 9.48681C47.4507 10.5733 48.2468 11.3551 49.1856 11.3551C50.1144 11.3551 50.8491 10.5733 50.8491 9.48681Z" fill="white"/>
<path d="M54.412 3.26416V12.3923H53.0444V3.26416H54.412Z" fill="white"/>
<path d="M59.7289 10.5003L60.7901 11.2111C60.4434 11.7188 59.6167 12.592 58.1878 12.592C56.4121 12.592 55.0957 11.2314 55.0957 9.48498C55.0957 7.63698 56.4327 6.37793 58.0348 6.37793C59.6575 6.37793 60.4434 7.65732 60.7085 8.35789L60.8515 8.71328L56.6776 10.4292C56.9938 11.0486 57.4939 11.3736 58.1878 11.3736C58.882 11.3532 59.3718 11.0182 59.7289 10.5003ZM56.4529 9.38342L59.2391 8.22589C59.0861 7.84006 58.6269 7.56593 58.0757 7.56593C57.3818 7.56593 56.4121 8.18528 56.4529 9.38342Z" fill="white"/>
<path d="M15.3231 3.41068C13.6719 2.46233 11.5605 3.02586 10.6063 4.66873L8.2009 8.81444C7.50489 10.0116 8.4009 10.4299 9.40001 11.0259L11.7145 12.355C12.4983 12.8048 13.4995 12.5378 13.9516 11.759L16.4243 7.49853C17.255 6.06687 16.7621 4.2372 15.3231 3.41068Z" fill="#EA4335"/>
<path d="M12.6023 5.13044L10.2878 3.80134C9.01011 3.09567 8.28656 3.04896 7.76198 3.87851L4.34835 9.76054C3.39517 11.4024 3.96259 13.5022 5.61277 14.4485C7.05171 15.275 8.89071 14.7846 9.72141 13.3529L13.2004 7.35714C13.6545 6.57736 13.3861 5.58026 12.6023 5.13044Z" fill="#FBBC04"/>
<path d="M13.0475 2.10091L11.4219 1.16678C9.6237 0.13415 7.32446 0.746415 6.28659 2.53549L3.19133 7.86919C2.73413 8.65611 3.00559 9.66334 3.79651 10.1172L5.61714 11.163C6.51619 11.6799 7.6653 11.3732 8.18477 10.4787L11.7209 4.3855C12.4536 3.12338 14.0752 2.69084 15.3437 3.41987L13.0475 2.10091Z" fill="#34A853"/>
<path d="M6.72616 4.06272L4.96883 3.05547C4.18505 2.60668 3.18393 2.87271 2.73183 3.65048L0.62343 7.27535C-0.414447 9.05932 0.20093 11.3419 1.9991 12.3715L3.337 13.138L4.95963 14.0681L5.6638 14.4712C4.41365 13.6386 4.01667 11.9704 4.78104 10.6565L5.32702 9.7183L7.32623 6.28128C7.77731 5.50557 7.50892 4.5115 6.72616 4.06272Z" fill="#4285F4"/>
</g>
<defs>
<clipPath id="clip0_1254_7808">
<rect width="82" height="15" fill="white" transform="translate(0 0.449219)"/>
</clipPath>
</defs>
</svg>
