<svg width="23" height="14" viewBox="0 0 23 14" fill="none" xmlns="http://www.w3.org/2000/svg">
<path d="M14.8239 1.51099H8.05664V12.3349H14.8239V1.51099Z" fill="#FF5F00"/>
<path d="M8.75381 6.92355C8.75297 5.88131 8.99423 4.85253 9.45934 3.91507C9.92445 2.97762 10.6012 2.15606 11.4384 1.51256C10.4015 0.714524 9.15623 0.218276 7.84493 0.0805268C6.53363 -0.057222 5.2092 0.169087 4.02303 0.733588C2.83685 1.29809 1.83678 2.17801 1.13711 3.27278C0.437444 4.36755 0.0664063 5.633 0.0664062 6.92451C0.0664062 8.21601 0.437444 9.48147 1.13711 10.5762C1.83678 11.671 2.83685 12.5509 4.02303 13.1154C5.2092 13.6799 6.53363 13.9062 7.84493 13.7685C9.15623 13.6307 10.4015 13.1345 11.4384 12.3365C10.601 11.6928 9.92404 10.8709 9.45891 9.93308C8.99379 8.99527 8.75267 7.96612 8.75381 6.92355Z" fill="#EB001B"/>
<path d="M22.1386 11.1887V10.9666H22.2362V10.9207H22.0039V10.9666H22.0957V11.1887H22.1386ZM22.5896 11.1887V10.9207H22.5194L22.4374 11.1121L22.3553 10.9207H22.2851V11.1887H22.3358V10.9858L22.412 11.16H22.4647L22.5408 10.9858V11.1887H22.5896Z" fill="#F79E1B"/>
<path d="M22.8125 6.92382C22.8125 8.21542 22.4414 9.48095 21.7416 10.5758C21.0418 11.6706 20.0416 12.5505 18.8552 13.1149C17.6689 13.6793 16.3443 13.9055 15.033 13.7675C13.7216 13.6296 12.4763 13.1331 11.4395 12.3348C12.2763 11.6907 12.9529 10.8689 13.4181 9.93144C13.8834 8.99394 14.1251 7.96521 14.1251 6.92286C14.1251 5.88052 13.8834 4.85178 13.4181 3.91428C12.9529 2.97677 12.2763 2.15498 11.4395 1.51091C12.4763 0.71263 13.7216 0.216139 15.033 0.0781927C16.3443 -0.0597539 17.6689 0.166409 18.8552 0.73083C20.0416 1.29525 21.0418 2.17515 21.7416 3.26996C22.4414 4.36477 22.8125 5.6303 22.8125 6.92191V6.92382Z" fill="#F79E1B"/>
</svg>
