<svg width="20" height="12" viewBox="0 0 20 12" fill="none" xmlns="http://www.w3.org/2000/svg">
<path d="M12.7033 10.7155H7.29541V1.28125H12.7034L12.7033 10.7155Z" fill="#FF5F00"/>
<path d="M7.63904 6C7.63904 4.08626 8.56213 2.38148 9.99955 1.28286C8.9115 0.450025 7.56574 -0.00198088 6.18013 6.52584e-06C2.76685 6.52584e-06 0 2.68625 0 6C0 9.31375 2.76685 12 6.18013 12C7.56578 12.002 8.91157 11.55 9.99965 10.7171C8.56233 9.61871 7.63904 7.91384 7.63904 6Z" fill="#EB001B"/>
<path d="M20.0001 6C20.0001 9.31375 17.2333 12 13.82 12C12.4342 12.002 11.0883 11.55 10 10.7171C11.4378 9.61852 12.3609 7.91384 12.3609 6C12.3609 4.08616 11.4378 2.38148 10 1.28286C11.0883 0.45005 12.4342 -0.00194605 13.8199 6.29821e-06C17.2332 6.29821e-06 20 2.68625 20 6" fill="#F79E1B"/>
</svg>
