<svg width="63" height="18" viewBox="0 0 63 18" fill="none" xmlns="http://www.w3.org/2000/svg">
<path d="M13.0649 2.35296C12.8443 1.89956 12.4954 1.5256 12.0622 1.24479C11.6103 0.961242 11.0769 0.762621 10.4673 0.644818C9.84695 0.529754 9.13037 0.477701 8.30015 0.469482L4.46723 0.472223C4.06883 0.477702 3.67845 0.795495 3.58487 1.19L1.00597 12.6991C0.912386 13.0881 1.16239 13.4141 1.56079 13.4141H3.39636C3.79476 13.4141 4.18915 13.0977 4.27739 12.6991L4.90707 9.9047C4.9913 9.51567 5.38435 9.19103 5.78676 9.19103H6.31216C8.55683 9.18829 10.2948 8.71844 11.5435 7.77739C12.7988 6.83496 13.4178 5.58981 13.4178 4.04741C13.4165 3.3721 13.3082 2.805 13.0649 2.35296ZM9.1063 6.11308C8.55148 6.5295 7.78009 6.73771 6.78543 6.73771H6.33623C5.93649 6.73771 5.69184 6.41443 5.77874 6.01993L6.33088 3.5762C6.40842 3.18443 6.81083 2.85979 7.20522 2.86253L7.80683 2.85842C8.5087 2.85842 9.0448 2.98307 9.4031 3.22416C9.75738 3.4625 9.93519 3.84194 9.93251 4.34466C9.94321 5.10901 9.65845 5.69666 9.1063 6.11308Z" fill="white"/>
<path d="M21.9159 3.99841C21.2234 3.59843 20.1298 3.39844 18.6351 3.39844C17.8958 3.39844 17.1592 3.45734 16.4145 3.57514C15.865 3.66144 15.8116 3.67788 15.4733 3.75322C14.7755 3.90937 14.6658 4.62304 14.6658 4.62304L14.4412 5.56958C14.3142 6.17366 14.6538 6.15037 14.7955 6.09969C15.1003 6.00655 15.2701 5.91066 15.8931 5.7682C16.488 5.62985 17.1151 5.52574 17.6124 5.53259C18.3463 5.53259 18.9078 5.61204 19.2822 5.77368C19.6512 5.93805 19.8357 6.22023 19.8357 6.62844L19.8036 6.89418L19.5389 7.06129C18.4974 7.12841 17.7447 7.22704 16.8316 7.36265C15.9386 7.49004 15.1551 7.71332 14.5041 8.01879C13.8049 8.33384 13.2861 8.75711 12.9238 9.29545C12.5736 9.83652 12.3984 10.4927 12.3984 11.2625C12.3984 11.9871 12.6525 12.5857 13.1458 13.0487C13.6418 13.5035 14.2968 13.7254 15.0803 13.7254C15.5763 13.7227 15.96 13.6829 16.2327 13.6158L17.1217 13.3021L17.8744 12.8747L18.5669 12.4063L18.5763 12.42L18.5068 12.7213L18.5028 12.7337V12.7364C18.4279 13.1035 18.6445 13.4049 18.9934 13.4405L19.0001 13.4487H19.0322H20.4399H20.7047L20.7287 13.4377C21.095 13.3939 21.4386 13.0925 21.5188 12.7337L22.8571 6.79829L22.9266 6.31475L22.9587 5.86135C22.964 5.02029 22.6097 4.39702 21.9159 3.99841ZM18.956 10.6721L18.6699 11.0584L17.9479 11.4406C17.6084 11.5816 17.2862 11.6529 16.988 11.6529C16.5362 11.6529 16.1819 11.5858 15.9426 11.4488L15.5883 10.7433C15.5883 10.3612 15.6739 10.0584 15.857 9.82556L16.6351 9.28312C16.968 9.16805 17.3744 9.0708 17.845 9.00368C18.2648 8.95025 19.0937 8.853 19.202 8.85026L19.329 9.07902C19.3036 9.20915 19.0683 10.2173 18.956 10.6721Z" fill="white"/>
<path d="M55.2557 4.00662C54.5592 3.60664 53.467 3.40527 51.9763 3.40527C51.237 3.40527 50.499 3.46417 49.757 3.58609C49.2062 3.66828 49.1514 3.68608 48.8118 3.76005C48.1153 3.91484 48.007 4.63125 48.007 4.63125L47.7824 5.57641C47.6568 6.1805 47.9883 6.1531 48.1434 6.10653C48.4495 6.01338 48.614 5.9216 49.2316 5.77367C49.8239 5.63668 50.4562 5.53532 50.9549 5.53806C51.6862 5.53806 52.2477 5.61888 52.6207 5.78052C52.9924 5.94489 53.1742 6.22981 53.1742 6.6339L53.1461 6.89828L52.8841 7.0695C51.8319 7.13388 51.0779 7.23251 50.1741 7.36812C49.2838 7.49551 48.4977 7.71742 47.8453 8.02425C47.1487 8.34068 46.6233 8.76395 46.265 9.30365C45.9107 9.84472 45.7383 10.4995 45.7383 11.2625C45.7383 11.9926 45.9896 12.5912 46.4896 13.0514C46.9883 13.5048 47.6367 13.7322 48.4201 13.7322C48.9134 13.7267 49.2971 13.6939 49.5712 13.6213L50.4576 13.3117L51.2169 12.8843L51.9041 12.4104L51.9161 12.4254L51.8533 12.7295L51.8466 12.735L51.8493 12.7405C51.7664 13.1076 51.9843 13.4117 52.3373 13.4446L52.3399 13.4514H52.372C52.6033 13.4514 53.4028 13.4514 53.7838 13.4514H54.0432L54.0712 13.4418C54.4335 13.3966 54.7758 13.0953 54.852 12.7323L56.1943 6.80513L56.2651 6.31885L56.3039 5.86407C56.3052 5.02575 55.9549 4.40523 55.2557 4.00662ZM52.3025 10.6803L52.0044 11.0707L51.2891 11.4501C50.9496 11.5899 50.626 11.6625 50.3332 11.6625C49.8667 11.6625 49.5217 11.594 49.2891 11.457L48.9308 10.7543C48.9308 10.3707 49.0177 10.0707 49.1929 9.83377C49.3707 9.61049 49.6421 9.42693 49.979 9.29269C50.3078 9.17763 50.7143 9.08448 51.1875 9.01462C51.6046 8.9612 52.4309 8.8612 52.5378 8.85984L52.6675 9.08859C52.6488 9.21872 52.4121 10.2228 52.3025 10.6803Z" fill="white"/>
<path d="M46.3999 2.39608C46.1699 1.93994 45.825 1.57146 45.3892 1.2838C44.9426 0.99888 44.4132 0.798889 43.7942 0.683825C43.1859 0.572871 42.46 0.5126 41.6351 0.51123L37.7969 0.513969C37.3971 0.520818 37.0134 0.838614 36.9212 1.22901L34.3396 12.7436C34.246 13.134 34.5027 13.4573 34.8931 13.4573L36.7313 13.4545C37.1217 13.4573 37.5215 13.1367 37.6137 12.7422L38.2354 9.94644C38.3263 9.55742 38.7207 9.23004 39.1177 9.23278H39.6431C41.8905 9.23278 43.6325 8.75882 44.8865 7.82051C46.1258 6.87123 46.7528 5.62882 46.7528 4.08505C46.7461 3.41248 46.6325 2.84401 46.3999 2.39608ZM42.4413 6.16167C41.8878 6.56988 41.1151 6.77809 40.1258 6.77809H39.6685C39.2741 6.7822 39.0188 6.45344 39.107 6.06168L39.6632 3.62206C39.7447 3.23166 40.1431 2.90428 40.5402 2.90839L41.1351 2.90428C41.841 2.90839 42.3704 3.02756 42.7314 3.26865C43.091 3.50973 43.2608 3.8878 43.2648 4.38915C43.2688 5.1535 42.9921 5.74251 42.4413 6.16167Z" fill="white"/>
<path d="M62.1394 1.31919C62.2236 0.92606 61.983 0.606895 61.5886 0.612374H59.9442C59.6073 0.612374 59.3038 0.868527 59.1554 1.18358L59.0645 1.32878L58.9816 1.70137L56.6835 12.405L56.6086 12.7338L56.6113 12.742C56.5351 13.094 56.7463 13.3598 57.0725 13.4105L57.1006 13.4502H58.8078C59.1421 13.4502 59.4562 13.1899 59.5993 12.8694L59.6875 12.7324L62.1447 1.32056L62.1394 1.31919Z" fill="white"/>
<path d="M34.3914 3.54166C33.9569 3.54714 32.1908 3.54166 32.1908 3.54166C31.7951 3.54166 31.2871 3.86904 31.0358 4.25944C31.0358 4.25944 28.4074 8.88116 28.152 9.34552L27.8472 9.34141L27.029 4.29094C26.9381 3.8937 26.533 3.55399 26.029 3.55399L24.3846 3.55673C23.9889 3.55673 23.7456 3.88 23.8352 4.2745C23.8352 4.2745 25.0838 11.555 25.3338 13.2686C25.4501 14.2138 25.3191 14.3823 25.3191 14.3823L23.6934 17.2835C23.4528 17.678 23.5825 17.9999 23.9769 17.9999L25.878 17.9972C26.2737 17.9972 26.7937 17.678 27.029 17.2822L34.3419 4.60874C34.3419 4.61011 35.0451 3.52659 34.3914 3.54166Z" fill="white"/>
</svg>
