<svg width="74" height="10" viewBox="0 0 74 10" fill="none" xmlns="http://www.w3.org/2000/svg">
<g clip-path="url(#clip0_1254_7795)">
<path d="M36.2359 2.22529C35.3438 1.89701 34.4517 1.7455 33.3759 1.97277C32.51 2.14953 31.8278 2.47782 31.3817 3.31115C31.5916 3.46267 31.7491 3.61418 31.9327 3.7657C32.2214 4.01823 32.51 4.2455 32.9036 4.54854C33.2184 4.11923 33.7694 3.63943 34.373 3.61418C35.0552 3.58893 35.7111 3.96773 35.8161 4.49804C35.8686 4.72531 35.8948 5.63438 35.8948 5.63438L35.5274 5.71015C35.5012 5.71015 35.4225 5.73538 35.3176 5.71015C35.2913 5.71015 35.2913 5.68488 35.2651 5.68488C35.2388 5.68488 35.2388 5.68488 35.2126 5.65965C34.3992 5.38185 33.6383 5.23035 32.9036 5.23035C32.6412 5.23035 32.3788 5.25562 32.1164 5.28085C31.303 5.40712 30.3584 5.83642 30.3584 7.25054C30.3584 7.78085 30.4896 8.18489 30.7258 8.51315C31.1718 9.094 31.8016 9.4475 32.6412 9.4475C33.5596 9.4475 34.373 9.22023 35.1601 8.61419C35.1864 8.61419 35.3438 8.46265 35.3963 8.43742L35.8948 8.05862V8.66469V9.4475H37.9677V4.54854C37.9152 3.46267 37.2855 2.60408 36.2359 2.22529ZM35.5799 6.77073C35.1339 7.52831 34.4254 7.95762 33.5858 7.95762C33.5596 7.95762 33.5071 7.95762 33.4808 7.95762C33.3234 7.95762 33.1397 7.93235 32.956 7.90712C32.3263 7.75562 31.9852 7.27581 32.0114 6.61923L32.0377 6.34146H35.8423L35.5799 6.77073Z" fill="black"/>
<path d="M57.8044 2.22529C56.9124 1.89701 56.0204 1.7455 54.9444 1.97277C54.0784 2.14953 53.3964 2.47782 52.9504 3.31115C53.16 3.46267 53.3176 3.61418 53.5012 3.7657C53.79 4.01823 54.0784 4.2455 54.472 4.54854C54.7868 4.11923 55.338 3.63943 55.9416 3.61418C56.6236 3.58893 57.2796 3.96773 57.3848 4.49804C57.4372 4.72531 57.4632 5.63438 57.4632 5.63438L57.096 5.71015C57.0696 5.71015 56.9912 5.73538 56.886 5.71015C56.86 5.71015 56.86 5.68488 56.8336 5.68488C56.8072 5.68488 56.8072 5.68488 56.7812 5.65965C55.9676 5.38185 55.2068 5.23035 54.472 5.23035C54.2096 5.23035 53.9472 5.25562 53.6848 5.28085C52.8716 5.40712 51.9268 5.83642 51.9268 7.25054C51.9268 7.78085 52.058 8.18489 52.2944 8.51315C52.7404 9.094 53.37 9.4475 54.2096 9.4475C55.128 9.4475 55.9416 9.22023 56.7288 8.61419C56.7548 8.61419 56.9124 8.46265 56.9648 8.43742L57.4632 8.05862V8.66469V9.4475H59.5364V4.54854C59.4836 3.46267 58.8804 2.60408 57.8044 2.22529ZM57.1484 6.77073C56.7024 7.52831 55.994 7.95762 55.1544 7.95762C55.128 7.95762 55.0756 7.95762 55.0492 7.95762C54.892 7.95762 54.7084 7.93235 54.5248 7.90712C53.8948 7.75562 53.5536 7.27581 53.58 6.61923L53.6064 6.34146H57.4108L57.1484 6.77073Z" fill="black"/>
<path d="M71.9211 2.22529C71.0291 1.89701 70.1371 1.7455 69.0611 1.97277C68.1951 2.14953 67.5131 2.47782 67.0671 3.31115C67.2767 3.46267 67.4343 3.61418 67.6179 3.7657C67.9067 4.01823 68.1951 4.2455 68.5887 4.54854C68.9039 4.11923 69.4547 3.63943 70.0583 3.61418C70.7403 3.58893 71.3963 3.96773 71.5015 4.49804C71.5539 4.72531 71.5799 5.63438 71.5799 5.63438L71.2127 5.71015C71.1863 5.71015 71.1079 5.73538 71.0027 5.71015C70.9767 5.71015 70.9767 5.68488 70.9503 5.68488C70.9239 5.68488 70.9243 5.68488 70.8979 5.65965C70.0843 5.38185 69.3235 5.23035 68.5887 5.23035C68.3263 5.23035 68.0639 5.25562 67.8015 5.28085C66.9883 5.40712 66.0435 5.83642 66.0435 7.25054C66.0435 7.78085 66.1747 8.18489 66.4111 8.51315C66.8571 9.094 67.4867 9.4475 68.3263 9.4475C69.2447 9.4475 70.0583 9.22023 70.8455 8.61419C70.8715 8.61419 71.0291 8.46265 71.0815 8.43742L71.5799 8.05862V8.66469V9.4475H73.6531V4.54854C73.6003 3.46267 72.9707 2.60408 71.9211 2.22529ZM71.2651 6.77073C70.8191 7.52831 70.1107 7.95762 69.2711 7.95762C69.2447 7.95762 69.1923 7.95762 69.1659 7.95762C69.0087 7.95762 68.8251 7.93235 68.6415 7.90712C68.0115 7.75562 67.6703 7.27581 67.6967 6.61923L67.7231 6.34146H71.5275L71.2651 6.77073Z" fill="black"/>
<path d="M65.1516 2.47705C64.4956 2.5023 63.9968 2.78008 63.682 3.33564C63.656 3.38614 63.4196 3.81544 63.4196 3.81544L62.9212 3.71442V3.48715V2.57806H60.9268V9.42149H62.9212V8.79018C62.9212 8.15887 62.9212 7.50229 62.9212 6.87099V6.74472C62.9212 6.51745 62.8948 6.29018 62.9212 6.03764C62.9736 5.15383 63.682 4.49725 64.548 4.39625C64.8364 4.37099 65.5188 4.34575 65.5976 4.34575V2.47705C65.4664 2.47705 65.3088 2.47705 65.1516 2.47705Z" fill="black"/>
<path d="M28.784 7.82973C28.6265 7.82973 28.4429 7.82973 28.2592 7.77923C27.7344 7.7035 27.3933 7.45096 27.2621 7.04693C27.2096 6.87016 27.1571 6.69339 27.1571 6.51662V3.46106H27.472C28.128 3.43581 28.8365 3.3853 29.5187 3.20853L29.0988 1.81965L27.1834 2.09743V0.00146484H24.9269V2.04692H23.3525V3.46106H24.8744C24.8744 3.46106 24.8744 6.36512 24.8744 7.1227C24.8744 7.60246 25.0056 8.03177 25.268 8.41054C25.5828 8.86512 26.0027 9.14289 26.6586 9.29439C27.3671 9.47116 28.0493 9.44593 28.8102 9.44593C28.8627 9.44593 28.9414 9.44593 28.9939 9.44593V7.82973C28.9676 7.82973 28.9414 7.82973 28.9152 7.82973C28.8889 7.82973 28.8365 7.82973 28.784 7.82973Z" fill="black"/>
<path d="M46.1276 5.55753C46.1276 4.87568 46.6 4.32015 47.256 4.26965C48.0432 4.19388 48.594 4.57268 48.7516 5.27972C48.7776 5.40599 48.7776 5.53226 48.7776 5.65853C48.7776 6.69388 48.7776 7.70399 48.7776 8.73934V9.42114H50.772V8.36053C50.772 7.17368 50.772 5.9868 50.772 4.79995C50.772 4.52218 50.7456 4.32015 50.7196 4.14338C50.562 3.28479 50.0896 2.77974 49.2764 2.55247C48.4104 2.3252 46.9672 2.50196 46.2852 3.63833L45.97 4.21915C45.8128 3.36055 45.288 2.75449 44.5008 2.52721C43.6348 2.29994 42.3228 2.50196 41.6672 3.61307L41.3784 4.11811V2.57772H39.2793V9.42114H41.352C41.352 9.42114 41.352 6.69388 41.352 5.70903C41.352 5.58276 41.352 5.45649 41.3784 5.33026C41.4572 4.82518 41.7984 4.44641 42.2968 4.32015C42.874 4.16865 43.4512 4.34541 43.766 4.74945C44.0024 5.05245 44.0284 5.38076 44.0284 5.63326C44.0284 6.59288 44.0284 9.42114 44.0284 9.42114H46.1276" fill="black"/>
<path d="M0.9446 2.65326C0.524776 3.10781 0.209911 3.5876 0 4.11792L6.6122 9.39569C6.92704 9.19365 7.24192 8.99165 7.50432 8.71388L7.63552 8.58761C10.1544 6.06235 8.5014 3.33508 7.50432 2.42599C5.69384 0.734068 2.80756 0.784576 1.07579 2.527L0.9446 2.65326Z" fill="black"/>
<path d="M19.2065 5.58325C19.2065 8.03275 17.1599 10.0024 14.6147 10.0024C12.0696 10.0024 10.0229 8.03275 10.0229 5.58325C10.0229 3.15901 12.0696 1.16406 14.6147 1.16406C17.1599 1.18931 19.2065 3.15901 19.2065 5.58325Z" fill="black"/>
</g>
<defs>
<clipPath id="clip0_1254_7795">
<rect width="74" height="10" fill="black"/>
</clipPath>
</defs>
</svg>
