<svg width="37" height="13" viewBox="0 0 37 13" fill="none" xmlns="http://www.w3.org/2000/svg">
<path d="M16.0398 11.8035H13.0207L14.9076 0.20721H17.9271L16.0398 11.8035ZM10.4809 0.20721L7.60256 8.18324L7.26196 6.46569L7.26227 6.46631L6.24639 1.25132C6.24639 1.25132 6.12355 0.20721 4.81422 0.20721H0.0558351L0 0.403563C0 0.403563 1.45512 0.706312 3.15809 1.72902L5.7811 11.8038H8.92678L13.7301 0.20721H10.4809ZM34.2278 11.8035H37L34.583 0.2069H32.156C31.0353 0.2069 30.7623 1.0711 30.7623 1.0711L26.2595 11.8035H29.4067L30.0361 10.081H33.8742L34.2278 11.8035ZM30.9056 7.70151L32.4919 3.36189L33.3844 7.70151H30.9056ZM26.4956 2.99586L26.9264 0.505616C26.9264 0.505616 25.5969 0 24.211 0C22.7128 0 19.1548 0.65482 19.1548 3.83897C19.1548 6.83483 23.3307 6.87205 23.3307 8.44567C23.3307 10.0193 19.5851 9.73732 18.3489 8.745L17.9001 11.3488C17.9001 11.3488 19.2482 12.0036 21.3079 12.0036C23.3682 12.0036 26.4763 10.9368 26.4763 8.03342C26.4763 5.01833 22.263 4.7376 22.263 3.42672C22.2633 2.11553 25.2036 2.28396 26.4956 2.99586Z" fill="#2566AF"/>
</svg>
