<svg width="44" height="14" viewBox="0 0 44 14" fill="none" xmlns="http://www.w3.org/2000/svg">
<path fill-rule="evenodd" clip-rule="evenodd" d="M22.3644 4.42655C22.3399 6.35528 24.0878 7.4316 25.4044 8.07155C26.7571 8.72821 27.2115 9.14927 27.2064 9.73636C27.196 10.6351 26.1272 11.0316 25.1269 11.047C23.3816 11.074 22.367 10.5771 21.5603 10.2012L20.9317 13.1354C21.741 13.5075 23.2397 13.832 24.7938 13.8462C28.4417 13.8462 30.8283 12.05 30.8413 9.26514C30.8555 5.73087 25.9401 5.53514 25.9736 3.95532C25.9852 3.47639 26.4434 2.96518 27.4477 2.83516C27.9446 2.76955 29.3168 2.71928 30.8723 3.43383L31.4828 0.594923C30.6464 0.29103 29.571 0 28.2326 0C24.799 0 22.3839 1.82057 22.3644 4.42655ZM37.3496 0.244616C36.6835 0.244616 36.122 0.632227 35.8716 1.22704L30.6605 13.6376H34.3058L35.0312 11.638H39.4858L39.9067 13.6376H43.1195L40.3158 0.244616H37.3496ZM37.8594 3.8626L38.9114 8.89168H36.0303L37.8594 3.8626ZM17.9448 0.244616L15.0714 13.6376H18.545L21.417 0.244616H17.9448ZM12.806 0.244616L9.19043 9.36033L7.72791 1.6094C7.55629 0.744244 6.8786 0.244616 6.12601 0.244616H0.215454L0.132812 0.633513C1.34622 0.896136 2.7248 1.31976 3.55992 1.77298C4.07104 2.04975 4.21698 2.29179 4.38473 2.94974L7.15479 13.6376H10.826L16.4539 0.244616H12.806Z" fill="white"/>
</svg>
