<svg width="40" height="40" viewBox="0 0 40 40" fill="none" xmlns="http://www.w3.org/2000/svg">
<path d="M28.986 13.2621C27.8409 13.2621 27.5999 13.7925 28.3633 14.6763C31.2159 17.9958 28.6043 26.0293 23.9036 28.3667C20.0868 30.2523 16.1092 29.4077 13.337 27.2275C9.03798 23.8294 7.97326 18.1922 13.4173 12.9086C16.8123 9.60875 20.6292 9.21591 24.004 11.4944C25.6312 12.5747 26.3946 12.6532 27.7807 11.8676C29.8297 10.689 26.9169 9.1177 23.2607 8.43024C11.308 6.17143 2.91096 16.8369 10.2433 27.6203C13.9999 33.1397 25.9527 33.3361 29.5485 27.9346C33.727 21.6688 33.4055 13.2621 28.986 13.2621Z" fill="#4833F5"/>
<path d="M17.8417 23.8895C14.484 22.9361 13.6964 24.5735 16.909 25.7341C18.4842 26.2938 18.7329 26.1487 18.878 27.2265C19.1682 29.5893 21.5932 29.0297 21.5932 26.5839C21.5932 26.0658 21.8211 25.8171 22.588 25.5683C25.7592 24.5113 25.925 20.2002 22.8368 19.0602C21.987 18.7493 20.6812 18.7286 19.5413 18.5835C15.9971 18.0861 17.8417 15.2051 19.8107 15.3295C20.1009 15.3502 22.1113 15.5367 22.5673 15.5989C24.0389 15.6611 24.3084 15.2673 24.3913 14.832C24.5156 14.231 22.9404 13.4641 21.5724 13.4641C20.8056 13.4641 20.7019 13.3604 20.7019 12.6557C20.7019 11.35 19.4791 10.6245 18.7536 11.5158C18.5878 11.7231 18.422 12.179 18.3598 12.5521C18.2769 13.0703 17.9453 13.3397 16.8261 13.7128C13.199 14.9149 12.5564 19.4126 18.7536 20.3453C20.4325 20.594 22.4222 21.1536 22.2979 22.2728C22.1113 24.0346 18.8158 24.1589 17.8417 23.8895Z" fill="#4833F5"/>
</svg>
