<svg width="40" height="40" viewBox="0 0 40 40" fill="none" xmlns="http://www.w3.org/2000/svg">
<path fill-rule="evenodd" clip-rule="evenodd" d="M15.783 10.1005C15.812 11.5787 17.5367 13.9555 18.7106 13.5063C19.2178 13.3034 19.2178 13.086 18.6671 11.5063C17.3482 7.75265 15.754 8.91206 15.783 10.1005ZM25.3482 13.4483C24.9424 14.5932 26.3482 14.7961 27.3193 13.7381C28.3048 12.6512 29.3627 11.028 29.928 9.92656C30.5511 8.86859 29.3337 8.33236 28.3192 9.20192C27.1163 10.2164 25.6236 12.6512 25.3482 13.4483ZM5.37725 12.5642C4.47869 12.9266 7.49319 16.6657 8.71058 16.6947C10.1309 16.7237 10.2468 16.4048 9.26128 15.086C7.71055 12.999 6.40623 12.1439 5.37725 12.5642ZM19.0004 17.941C18.4642 18.4773 17.8265 19.2164 17.5801 19.5642C15.4642 22.7237 15.4352 22.7526 14.4642 22.0135C12.2178 20.3324 8.52213 19.1874 9.24677 22.115C9.69604 23.8831 11.0294 27.115 11.3772 28.1874C12.2758 31.0135 12.754 31.4773 14.3482 31.1005C18.3048 30.1439 23.957 30.115 28.0004 31.028C29.0004 31.2599 29.0584 31.1439 29.1599 29.1295C29.3628 25.057 31.7105 21.086 31.7105 19.8106C31.7105 18.3758 29.0004 19.4483 25.3193 22.3324L24.9425 22.6222L24.4062 22.2599C23.3048 21.5208 22.754 22.1005 23.3772 23.3324C23.8844 24.3324 24.3048 24.6657 25.4207 24.1295C26.0584 23.8251 26.9424 23.2454 28.1888 22.3613C28.6816 22.0135 29.0874 21.7671 29.0874 21.8106C29.0874 22.0135 28.2033 25.8106 28.2033 25.8251L26.0004 25.6367C24.2468 25.5642 24.0439 26.4918 25.8555 26.7671C26.0439 26.7961 27.899 27.028 27.899 27.028C27.899 27.028 27.8265 27.8396 27.6236 28.3034C27.4062 28.7671 27.0439 28.8831 26.4497 28.6802C21.7975 27.144 14.2178 29.0135 14.2033 29.0135C13.928 29.057 11.4062 22.4048 11.6091 22.2019C11.6381 22.1729 11.9424 22.3613 12.2902 22.6222C16.2178 25.4773 16.6236 25.3903 19.2178 21.2309L20.4352 19.2744L20.9134 19.9845C22.3047 22.057 24.2758 21.144 23.1743 19.6222C22.7975 19.115 22.1743 18.3613 21.1743 17.1874C20.7251 16.6512 20.0584 16.8831 19.0004 17.941ZM37.8555 17.7236C37.3338 18.028 34.6091 20.6367 34.2903 21.1294C33.6091 22.2164 35.0294 22.4628 36.3193 21.4773C37.8265 20.3323 39.957 18.3613 39.957 18.1005C39.9715 17.5787 38.5657 17.3179 37.8555 17.7236ZM1.95694 24.6657C4.07288 25.1874 5.29025 25.3179 5.76851 25.057C6.55112 24.6367 6.18881 24.3323 4.33374 23.8686C4.15983 23.8251 2.44967 23.3468 1.27575 23.3468C0.435174 23.3468 -1.43436 23.8106 1.95694 24.6657Z" fill="#4833F5"/>
</svg>
