<svg width="40" height="40" viewBox="0 0 40 40" fill="none" xmlns="http://www.w3.org/2000/svg">
<path fill-rule="evenodd" clip-rule="evenodd" d="M26.5282 7.88042C25.2094 8.47462 24.4992 9.63404 24.3977 11.3442C24.2673 13.634 23.7456 14.4167 23.1514 13.2282C20.9919 8.96738 13.5717 7.76448 12.818 11.5616C12.7311 11.9674 12.7166 11.9674 11.7745 11.9674C7.62961 11.9384 5.23837 20.0978 8.20938 24.1413C8.41228 24.4166 8.12242 25.3877 7.26735 27.2862C6.78909 28.3442 6.84705 28.5181 7.68763 28.8949C8.45574 29.2427 8.70213 28.8804 10.2384 25.1123C10.4703 24.5471 10.4703 23.9094 10.2384 23.3442C9.89054 22.5036 9.47024 21.5761 9.1369 20.9529C8.03545 18.7935 8.76011 15.75 10.8181 13.9239C12.7021 12.2572 14.6297 13.634 12.9775 15.4746C10.7021 17.9964 12.8615 21.0543 16.2093 20.0543C19.2093 19.1703 19.3253 14.9819 16.3688 14.1848C14.8036 13.7645 14.1369 11.5616 15.3253 10.7645C18.2818 8.76448 21.963 12.8659 21.5717 17.7355C21.3688 20.2717 23.9195 19.1123 23.9195 17.3732C23.9195 16.9239 24.0355 16.6775 24.4992 16.1413C25.4847 14.9964 25.9485 13.7935 26.1659 11.721C26.3688 9.80795 28.8615 8.21375 29.5717 9.54708C30.021 10.3877 29.3108 14.8804 28.5137 16.1703C27.876 17.2138 25.6151 19.779 24.8905 20.2717C23.9485 20.9094 24.05 21.4601 25.1659 21.6485C25.7166 21.7355 25.8036 21.7065 26.8326 20.8514C29.3978 18.721 30.2094 17.6775 30.8181 15.6775C31.2529 14.2572 31.8905 14.5761 31.905 16.0543C31.9195 19.0833 28.7456 22.6196 25.7021 23.8659C24.9775 24.1703 24.934 24.5036 25.5572 24.9674C26.4847 25.6485 28.1369 24.9384 30.0354 23.0398C31.2238 21.8514 31.2818 21.8224 31.1514 22.3007C30.4412 25.0543 28.1514 27.3297 25.2384 28.1848C23.3108 28.75 21.5137 29.1558 20.1659 29.3297C19.9775 29.3877 18.8325 29.3442 17.876 30.3587C16.4702 31.8514 18.6297 33.0398 19.3688 31.8514C19.9195 30.9529 20.0934 30.8659 21.1659 30.8514C22.2239 30.8514 22.2818 30.8369 25.2818 29.9964C27.8325 29.2862 29.3398 28.5471 30.4267 27.4891C32.7166 25.2427 33.6732 21.9964 32.4847 20.4311C32.2239 20.0833 32.2238 20.0688 32.6441 19.1558C33.4992 17.3297 33.2963 14.9239 32.1659 13.5616C31.7601 13.0688 31.7311 12.9384 31.6876 11.75C31.6297 8.93839 28.8326 6.83694 26.5282 7.88042ZM16.1369 15.0688C17.3398 15.6775 16.6297 18.8224 15.2239 19.1703C14.7311 19.3007 12.5427 18.1703 14.2528 15.808C15.0354 14.721 15.2673 14.6196 16.1369 15.0688Z" fill="#4833F5"/>
</svg>
