<svg width="40" height="40" viewBox="0 0 40 40" fill="none" xmlns="http://www.w3.org/2000/svg">
<path d="M10.7267 25.3413C4.90128 17.8462 5.77218 10.6979 12.7395 8.94458C14.8684 8.40509 17.5974 9.02166 19.107 10.3704L19.8811 11.064L21.023 10.3897C27.6226 6.42053 35.7511 13.7422 32.3061 20.5437C29.1708 26.7285 18.9715 33.3759 16.8813 30.6013C16.262 29.7728 16.5716 29.6572 18.2167 30.0618C19.7843 30.4472 27.0226 24.0504 28.8225 20.6785C30.9901 16.6323 30.5643 14.4358 27.1 11.6613C25.6678 10.5245 23.4422 11.0255 21.7003 12.9137C20.3262 14.378 18.894 14.4936 17.7135 12.644C14.3653 7.44172 8.86879 11.565 10.4364 18.0967C11.0945 20.7941 11.8106 22.1429 14.5395 25.7266C16.3974 28.1543 16.4554 28.2699 15.8361 28.5975C14.6555 29.2333 12.8169 28.058 10.7267 25.3413Z" fill="#4833F5"/>
<path d="M25.4718 13.7168C24.4509 13.5292 25.3051 12.3833 26.2635 12.7167C27.0553 13.0084 28.1596 13.4876 28.5971 14.7169C29.0763 16.0086 28.1178 17.2587 27.5761 17.1129C27.0969 16.9879 26.9511 16.4462 27.0136 15.3419C27.0761 14.2376 26.4928 13.9043 25.4718 13.7168Z" fill="#4833F5"/>
<path d="M27.8043 20.3218C26.45 20.6343 25.4291 19.6134 26.0333 18.9258C26.4917 18.4258 28.221 18.3841 28.721 18.8841C29.1378 19.3217 28.8669 20.0718 27.8043 20.3218Z" fill="#4833F5"/>
</svg>
