<svg width="40" height="40" viewBox="0 0 40 40" fill="none" xmlns="http://www.w3.org/2000/svg">
<path d="M27.3163 10.3275C23.4084 8.2855 20.9891 10.0563 23.8891 10.7582C31.2398 12.545 32.2478 21.8776 25.1917 27.0942C16.8175 33.2681 6.30323 24.9087 11.6379 16.3259C13.9021 12.6886 16.4609 10.7263 19.0197 10.6466C21.2683 10.5827 20.5549 9.41816 18.2598 9.41816C12.5994 9.41816 6.50487 16.8364 7.63694 22.3561C8.5519 26.8709 12.1497 29.8063 17.655 30.5082C30.48 32.1514 38.2028 16.0068 27.3163 10.3275Z" fill="#4833F5"/>
<path d="M17.508 23.0502C16.7209 21.7981 16.6494 21.7444 15.8624 21.7981C13.8054 21.9591 15.1649 24.8925 17.7584 25.8584C19.9049 26.6633 23.2318 26.234 24.3587 25.0356C26.0579 23.229 25.6465 20.3671 23.8578 21.5477C23.7505 21.6192 23.5001 22.0485 23.3034 22.4778C21.9797 25.4112 19.1357 25.6795 17.508 23.0502Z" fill="#4833F5"/>
<path d="M25.2891 17.326C24.6452 15.7877 23.6436 15.4121 22.9281 16.4495C22.0695 17.7195 22.5525 18.9 23.9298 18.9C25.307 18.9 25.7363 18.4171 25.2891 17.326Z" fill="#4833F5"/>
<path d="M17.8644 17.5767C17.8644 16.3246 17.0596 15.7522 15.9506 16.2173C14.9489 16.6287 14.4838 18.5247 15.1993 19.1865C16.3262 20.2061 17.8644 19.2581 17.8644 17.5767Z" fill="#4833F5"/>
</svg>
