<svg width="40" height="40" viewBox="0 0 40 40" fill="none" xmlns="http://www.w3.org/2000/svg">
<path d="M30.8734 17.4678C30.02 17.9111 29.9707 18.0259 30.2169 19.3224C31.0376 23.7044 27.0166 30.9257 18.4823 28.9235C16.3488 28.4312 15.9219 28.4639 14.2315 29.383C12.4919 30.3185 12.5083 30.3185 12.7381 28.7101C13.0171 26.6587 12.9842 26.4125 12.2621 25.4441C8.74992 20.7996 10.0301 14.0706 15.003 10.9687C21.535 6.8821 26.6718 8.80231 29.0024 13.4961C29.6589 14.8255 30.1184 15.0389 31.6119 14.7435C32.2848 14.6122 32.2848 14.2347 31.6119 13.1351C26.4751 4.76494 13.5423 6.47179 9.2423 13.332C6.7805 17.2545 6.71488 22.5227 10.424 26.6914C11.0641 27.4135 11.1297 28.1849 10.7358 30.22C10.3419 32.2716 11.1625 32.4357 14.527 30.9914L16.6277 30.0887L18.1869 30.5155C21.3379 31.3853 24.6204 30.9749 27.7222 29.301C29.0188 28.6116 31.333 26.0021 32.449 21.9483C33.3844 18.4854 32.7115 16.5324 30.8734 17.4678Z" fill="#4833F5"/>
<path d="M20.3701 17.2868L19.8778 16.302C18.2694 13.0853 17.2354 12.3796 15.6927 13.4628C11.6061 16.3513 16.94 25.7719 22.6841 25.8375C26.0651 25.8702 29.167 22.5386 26.5574 21.6688C26.1307 21.5211 25.1953 20.9959 24.4732 20.4871C22.9797 19.4203 22.1918 19.3382 21.4697 20.1588C20.9937 20.7169 20.8789 20.7005 20.2881 19.9455C19.6645 19.1742 19.6645 18.8459 20.206 18.2715C20.485 18.0089 20.5343 17.6151 20.3701 17.2868ZM22.7006 21.1765L22.7827 20.6676C25.8845 22.8669 26.5739 23.1788 25.0803 23.9665C24.227 24.426 22.7991 24.8527 22.0606 24.4588C20.8133 23.8188 16.7758 20.1917 16.3656 19.3711C15.3973 17.4837 16.0866 14.0208 17.1369 15.2024C17.5473 15.662 18.6797 17.3197 19.0408 17.8284C18.4499 19.0757 18.2202 19.3711 19.172 20.5857C20.7476 22.5879 22.4545 22.7356 22.7006 21.1765Z" fill="#4833F5"/>
</svg>
